<?xml version="1.0" encoding="UTF-8" standalone="no"?>
<svg
   width="181.92pt"
   height="235.92pt"
   viewBox="0 0 181.92 235.92"
   version="1.1"
   id="svg153"
   xmlns="http://www.w3.org/2000/svg"
   xmlns:svg="http://www.w3.org/2000/svg">
  <defs
     id="defs53">
    <clipPath
       id="clip-0">
      <path
         clip-rule="nonzero"
         d="M 87 49 L 94.371094 49 L 94.371094 57 L 87 57 Z M 87 49 "
         id="path2" />
    </clipPath>
    <clipPath
       id="clip-1">
      <path
         clip-rule="nonzero"
         d="M 86.878906 49 L 94.371094 49 L 94.371094 57 L 86.878906 57 Z M 86.878906 49 "
         id="path5" />
    </clipPath>
    <clipPath
       id="clip-2">
      <path
         clip-rule="nonzero"
         d="M 117 55 L 124.328125 55 L 124.328125 62 L 117 62 Z M 117 55 "
         id="path8" />
    </clipPath>
    <clipPath
       id="clip-3">
      <path
         clip-rule="nonzero"
         d="M 116.839844 54 L 124.328125 54 L 124.328125 62.914063 L 116.839844 62.914063 Z M 116.839844 54 "
         id="path11" />
    </clipPath>
    <clipPath
       id="clip-4">
      <path
         clip-rule="nonzero"
         d="M 139.308594 66 L 146.796875 66 L 146.796875 73 L 139.308594 73 Z M 139.308594 66 "
         id="path14" />
    </clipPath>
    <clipPath
       id="clip-5">
      <path
         clip-rule="nonzero"
         d="M 139.308594 65.160156 L 146.796875 65.160156 L 146.796875 74 L 139.308594 74 Z M 139.308594 65.160156 "
         id="path17" />
    </clipPath>
    <clipPath
       id="clip-6">
      <path
         clip-rule="nonzero"
         d="M 57 55 L 64.410156 55 L 64.410156 62 L 57 62 Z M 57 55 "
         id="path20" />
    </clipPath>
    <clipPath
       id="clip-7">
      <path
         clip-rule="nonzero"
         d="M 56.921875 54 L 64.410156 54 L 64.410156 62.914063 L 56.921875 62.914063 Z M 56.921875 54 "
         id="path23" />
    </clipPath>
    <clipPath
       id="clip-8">
      <path
         clip-rule="nonzero"
         d="M 34.453125 66 L 41.941406 66 L 41.941406 73 L 34.453125 73 Z M 34.453125 66 "
         id="path26" />
    </clipPath>
    <clipPath
       id="clip-9">
      <path
         clip-rule="nonzero"
         d="M 34.453125 65.160156 L 41.941406 65.160156 L 41.941406 74 L 34.453125 74 Z M 34.453125 65.160156 "
         id="path29" />
    </clipPath>
    <clipPath
       id="clip-10">
      <path
         clip-rule="nonzero"
         d="M 85.382813 72 L 93 72 L 93 79 L 85.382813 79 Z M 85.382813 72 "
         id="path32" />
    </clipPath>
    <clipPath
       id="clip-11">
      <path
         clip-rule="nonzero"
         d="M 85.382813 71.152344 L 93 71.152344 L 93 80 L 85.382813 80 Z M 85.382813 71.152344 "
         id="path35" />
    </clipPath>
    <clipPath
       id="clip-12">
      <path
         clip-rule="nonzero"
         d="M 91 75 L 95.867188 75 L 95.867188 80.890625 L 91 80.890625 Z M 91 75 "
         id="path38" />
    </clipPath>
    <clipPath
       id="clip-13">
      <path
         clip-rule="nonzero"
         d="M 85.382813 94 L 93 94 L 93 102 L 85.382813 102 Z M 85.382813 94 "
         id="path41" />
    </clipPath>
    <clipPath
       id="clip-14">
      <path
         clip-rule="nonzero"
         d="M 91 97 L 95.867188 97 L 95.867188 103.359375 L 91 103.359375 Z M 91 97 "
         id="path44" />
    </clipPath>
    <clipPath
       id="clip-15">
      <path
         clip-rule="nonzero"
         d="M 87 5 L 94.371094 5 L 94.371094 12 L 87 12 Z M 87 5 "
         id="path47" />
    </clipPath>
    <clipPath
       id="clip-16">
      <path
         clip-rule="nonzero"
         d="M 86.878906 4 L 94.371094 4 L 94.371094 12 L 86.878906 12 Z M 86.878906 4 "
         id="path50" />
    </clipPath>
  </defs>
  <path
     fill-rule="nonzero"
     fill="rgb(74.508667%, 74.508667%, 74.508667%)"
     fill-opacity="1"
     d="M 32.863281 74.394531 C 33.441406 73.90625 34.027344 73.425781 34.617188 72.953125 L 35.085938 73.539063 C 34.5 74.007813 33.921875 74.484375 33.347656 74.964844 Z M 36.398438 71.5625 C 36.996094 71.109375 37.601563 70.660156 38.207031 70.222656 L 38.644531 70.832031 C 38.042969 71.265625 37.445313 71.707031 36.851563 72.160156 Z M 40.050781 68.925781 C 40.671875 68.5 41.300781 68.082031 41.933594 67.671875 L 42.34375 68.300781 C 41.714844 68.707031 41.089844 69.121094 40.472656 69.546875 Z M 43.84375 66.46875 C 44.480469 66.074219 45.125 65.691406 45.773438 65.316406 L 46.148438 65.964844 C 45.507813 66.335938 44.867188 66.71875 44.234375 67.105469 Z M 47.742188 64.207031 C 48.40625 63.84375 49.070313 63.492188 49.742188 63.148438 L 50.082031 63.8125 C 49.417969 64.15625 48.757813 64.503906 48.101563 64.863281 Z M 51.757813 62.140625 C 52.433594 61.816406 53.113281 61.496094 53.796875 61.1875 L 54.105469 61.871094 C 53.425781 62.175781 52.753906 62.492188 52.082031 62.816406 Z M 55.871094 60.28125 C 56.5625 59.988281 57.257813 59.703125 57.960938 59.429688 L 58.234375 60.125 C 57.539063 60.398438 56.847656 60.679688 56.160156 60.972656 Z M 60.066406 58.632813 C 60.773438 58.375 61.484375 58.125 62.199219 57.886719 L 62.4375 58.59375 C 61.726563 58.832031 61.023438 59.078125 60.320313 59.335938 Z M 64.347656 57.191406 C 65.066406 56.96875 65.785156 56.757813 66.511719 56.554688 L 66.710938 57.273438 C 65.996094 57.476563 65.28125 57.6875 64.566406 57.90625 Z M 68.6875 55.96875 C 69.417969 55.785156 70.148438 55.609375 70.882813 55.441406 L 71.050781 56.171875 C 70.320313 56.335938 69.597656 56.511719 68.871094 56.695313 Z M 73.089844 54.964844 C 73.828125 54.816406 74.566406 54.679688 75.304688 54.546875 L 75.433594 55.285156 C 74.703125 55.414063 73.96875 55.554688 73.238281 55.699219 Z M 77.535156 54.183594 C 78.277344 54.074219 79.023438 53.96875 79.769531 53.875 L 79.863281 54.621094 C 79.121094 54.710938 78.382813 54.8125 77.644531 54.925781 Z M 82.011719 53.625 C 82.761719 53.550781 83.507813 53.484375 84.257813 53.429688 L 84.316406 54.175781 C 83.570313 54.230469 82.828125 54.296875 82.085938 54.371094 Z M 86.511719 53.289063 C 87.265625 53.253906 88.015625 53.222656 88.765625 53.207031 L 88.785156 53.953125 C 88.039063 53.972656 87.296875 54 86.550781 54.039063 Z M 91.023438 53.179688 C 91.777344 53.179688 92.527344 53.1875 93.28125 53.207031 L 93.261719 53.957031 C 92.515625 53.9375 91.769531 53.925781 91.023438 53.925781 Z M 95.535156 53.292969 C 96.285156 53.328125 97.039063 53.375 97.789063 53.433594 L 97.730469 54.179688 C 96.988281 54.125 96.242188 54.078125 95.496094 54.039063 Z M 100.035156 53.628906 C 100.785156 53.707031 101.53125 53.789063 102.277344 53.882813 L 102.183594 54.625 C 101.445313 54.535156 100.703125 54.449219 99.960938 54.375 Z M 104.511719 54.191406 C 105.257813 54.304688 106 54.425781 106.742188 54.558594 L 106.613281 55.296875 C 105.875 55.164063 105.140625 55.042969 104.402344 54.933594 Z M 108.957031 54.976563 C 109.695313 55.125 110.429688 55.285156 111.160156 55.453125 L 110.996094 56.183594 C 110.269531 56.015625 109.539063 55.859375 108.808594 55.710938 Z M 113.359375 55.984375 C 114.085938 56.167969 114.8125 56.363281 115.535156 56.566406 L 115.332031 57.289063 C 114.617188 57.085938 113.894531 56.894531 113.171875 56.710938 Z M 117.699219 57.207031 C 118.417969 57.429688 119.132813 57.660156 119.847656 57.902344 L 119.609375 58.609375 C 118.902344 58.371094 118.191406 58.144531 117.476563 57.921875 Z M 121.980469 58.648438 C 122.683594 58.90625 123.386719 59.171875 124.085938 59.449219 L 123.808594 60.144531 C 123.117188 59.871094 122.421875 59.609375 121.722656 59.351563 Z M 126.171875 60.300781 C 126.867188 60.59375 127.558594 60.898438 128.246094 61.207031 L 127.933594 61.890625 C 127.253906 61.582031 126.570313 61.28125 125.882813 60.992188 Z M 130.285156 62.164063 C 130.960938 62.492188 131.632813 62.828125 132.300781 63.171875 L 131.957031 63.835938 C 131.296875 63.496094 130.628906 63.164063 129.960938 62.839844 Z M 134.296875 64.230469 C 134.957031 64.59375 135.617188 64.964844 136.269531 65.34375 L 135.894531 65.992188 C 135.246094 65.613281 134.59375 65.246094 133.9375 64.886719 Z M 138.199219 66.496094 C 138.839844 66.886719 139.472656 67.289063 140.105469 67.699219 L 139.695313 68.328125 C 139.070313 67.921875 138.441406 67.523438 137.804688 67.132813 Z M 141.988281 68.957031 C 142.605469 69.378906 143.222656 69.8125 143.832031 70.253906 L 143.394531 70.863281 C 142.789063 70.425781 142.179688 69.996094 141.5625 69.574219 Z M 145.636719 71.59375 C 146.234375 72.050781 146.828125 72.511719 147.417969 72.984375 L 146.949219 73.570313 C 146.367188 73.101563 145.777344 72.640625 145.183594 72.191406 Z M 149.167969 74.425781 L 149.503906 74.707031 L 149.019531 75.28125 L 148.6875 74.996094 Z M 149.167969 74.425781 "
     id="path55" />
  <path
     fill-rule="nonzero"
     fill="rgb(74.508667%, 74.508667%, 74.508667%)"
     fill-opacity="1"
     d="M 90.625 46.0625 L 90.625 43.816406 L 91.375 43.816406 L 91.375 46.0625 M 90.625 41.566406 L 90.625 39.320313 L 91.375 39.320313 L 91.375 41.566406 M 90.625 37.074219 L 90.625 34.828125 L 91.375 34.828125 L 91.375 37.074219 M 90.625 32.582031 L 90.625 30.332031 L 91.375 30.332031 L 91.375 32.582031 M 90.625 28.085938 L 90.625 25.839844 L 91.375 25.839844 L 91.375 28.085938 M 90.625 23.59375 L 90.625 21.34375 L 91.375 21.34375 L 91.375 23.59375 M 90.625 19.097656 L 90.625 16.851563 L 91.375 16.851563 L 91.375 19.097656 "
     id="path57" />
  <path
     fill-rule="nonzero"
     fill="rgb(100%, 100%, 100%)"
     fill-opacity="1"
     stroke-width="1"
     stroke-linecap="butt"
     stroke-linejoin="miter"
     stroke="rgb(0%, 0%, 0%)"
     stroke-opacity="1"
     stroke-miterlimit="4"
     d="M 130.998108 70.99913 C 130.998108 71.656282 130.935522 72.308218 130.810351 72.949723 C 130.679963 73.596443 130.492206 74.222302 130.236647 74.827298 C 129.986303 75.432295 129.67859 76.011214 129.313505 76.553625 C 128.948421 77.101251 128.536398 77.607154 128.072219 78.071332 C 127.608041 78.535511 127.102138 78.947534 126.554512 79.312618 C 126.012101 79.677703 125.433182 79.985416 124.828185 80.240975 C 124.217973 80.491319 123.59733 80.679076 122.95061 80.809464 C 122.309105 80.934635 121.657169 81.002437 121.000017 81.002437 C 120.342865 81.002437 119.690929 80.934635 119.049424 80.809464 C 118.402704 80.679076 117.782061 80.491319 117.171849 80.240975 C 116.566852 79.985416 115.987933 79.677703 115.445522 79.312618 C 114.897896 78.947534 114.391993 78.535511 113.927815 78.071332 C 113.463636 77.607154 113.051613 77.101251 112.686529 76.553625 C 112.321444 76.011214 112.013731 75.432295 111.763387 74.827298 C 111.507828 74.222302 111.320071 73.596443 111.189683 72.949723 C 111.064512 72.308218 111.001926 71.656282 111.001926 70.99913 C 111.001926 70.341978 111.064512 69.695258 111.189683 69.048537 C 111.320071 68.407032 111.507828 67.781174 111.763387 67.170962 C 112.013731 66.565965 112.321444 65.992261 112.686529 65.444635 C 113.051613 64.897009 113.463636 64.391106 113.927815 63.926928 C 114.391993 63.462749 114.897896 63.050726 115.445522 62.685642 C 115.987933 62.320557 116.566852 62.012844 117.171849 61.7625 C 117.782061 61.512157 118.402704 61.319184 119.049424 61.194012 C 119.690929 61.063625 120.342865 61.001039 121.000017 61.001039 C 121.657169 61.001039 122.309105 61.063625 122.95061 61.194012 C 123.59733 61.319184 124.217973 61.512157 124.828185 61.7625 C 125.433182 62.012844 126.012101 62.320557 126.554512 62.685642 C 127.102138 63.050726 127.608041 63.462749 128.072219 63.926928 C 128.536398 64.391106 128.948421 64.897009 129.313505 65.444635 C 129.67859 65.992261 129.986303 66.565965 130.236647 67.170962 C 130.492206 67.781174 130.679963 68.407032 130.810351 69.048537 C 130.935522 69.695258 130.998108 70.341978 130.998108 70.99913 Z M 130.998108 70.99913 "
     transform="matrix(0.748971, 0, 0, 0.748971, 0.374486, 0.374486)"
     id="path59" />
  <g
     clip-path="url(#clip-0)"
     id="g63">
    <path
       fill-rule="nonzero"
       fill="#000000"
       fill-opacity="1"
       d="m 87.375,53.898438 c 0,-0.6875 0.21875,-1.351563 0.660156,-1.984375 0.4375,-0.636719 0.992188,-1.136719 1.664063,-1.507813 0.667969,-0.371094 1.335937,-0.5625 2.007812,-0.566406 0.589844,0 1.058594,0.152344 1.40625,0.457031 0.05859,0.05859 0.109375,0.109375 0.148438,0.152344 0.03906,0.04297 0.06641,0.07031 0.07813,0.08984 l 0.01172,0.02734 c 0.01953,0 0.105468,-0.07813 0.265625,-0.234375 0.04687,-0.03516 0.09375,-0.07813 0.148437,-0.125 0.05078,-0.04687 0.101563,-0.09766 0.15625,-0.144531 0.05078,-0.04687 0.08594,-0.07813 0.09766,-0.09766 l 0.148438,-0.136719 h 0.05859 c 0.09375,0 0.136718,0.02344 0.136718,0.06641 0,0.02344 -0.105468,0.433594 -0.3125,1.230469 -0.238281,0.832031 -0.355468,1.25 -0.355468,1.253906 -0.01172,0.03125 -0.03125,0.05078 -0.05078,0.05469 -0.01953,0.0078 -0.07813,0.01172 -0.175781,0.01953 H 93.3125 c -0.03906,-0.03516 -0.05859,-0.0625 -0.05859,-0.08203 0,-0.0039 0,-0.02734 0.0078,-0.0625 0.0078,-0.03516 0.01172,-0.09766 0.01953,-0.179688 0.0078,-0.08203 0.01172,-0.179687 0.01172,-0.289062 0,-0.421875 -0.105469,-0.792969 -0.316406,-1.113281 -0.210938,-0.316407 -0.566407,-0.476563 -1.074219,-0.484375 -0.171875,0 -0.355469,0.02344 -0.550781,0.0625 -0.195313,0.04297 -0.433594,0.113281 -0.707032,0.214843 -0.277343,0.105469 -0.550781,0.269532 -0.820312,0.503907 -0.269531,0.234375 -0.507813,0.511718 -0.71875,0.835937 -0.207031,0.339844 -0.375,0.738281 -0.5,1.195313 -0.125,0.453125 -0.1875,0.824218 -0.1875,1.113281 0,0.683594 0.25,1.171875 0.746094,1.472656 0.316406,0.203125 0.703125,0.304688 1.164062,0.304688 0.597656,0 1.128906,-0.203125 1.59375,-0.609375 0.46875,-0.40625 0.777344,-0.851563 0.925781,-1.332032 0.02734,-0.07422 0.04687,-0.121093 0.05859,-0.132812 0.01563,-0.01172 0.06641,-0.01953 0.160156,-0.01953 0.128907,0 0.195313,0.02734 0.195313,0.08203 0,0.03125 -0.0039,0.05859 -0.0078,0.08203 -0.191406,0.640625 -0.597656,1.191406 -1.222656,1.652344 -0.625,0.460937 -1.292969,0.691406 -2.007812,0.691406 -0.742188,0 -1.371094,-0.226562 -1.882813,-0.675781 C 87.628906,55.234375 87.375,54.640625 87.375,53.898438 Z m 0,0"
       id="path61" />
  </g>
  <g
     clip-path="url(#clip-1)"
     id="g67">
    <path
       fill="none"
       stroke-width="12.1873"
       stroke-linecap="butt"
       stroke-linejoin="miter"
       stroke="#000000"
       stroke-opacity="0.0392"
       stroke-miterlimit="4"
       d="m 50.127128,251.96033 c 0,76.55503 22.216392,150.50023 67.045892,220.96566 44.43279,70.90039 100.76721,126.57677 169.00327,167.89909 67.83934,41.32232 135.67868,62.63593 203.91474,63.07091 59.90491,0 107.51146,-16.9639 142.81966,-50.8917 5.95082,-6.52457 11.10819,-12.17921 15.07541,-16.9639 3.96721,-4.78469 6.74426,-7.82949 7.93442,-10.00435 l 1.19017,-3.0448 c 1.9836,0 10.71147,8.69944 26.97704,26.09831 4.76066,3.91474 9.52131,8.69943 15.07541,13.91909 5.15738,5.21966 10.31475,10.87429 15.86885,16.09396 5.15738,5.21966 8.72787,8.69943 9.91803,10.87429 l 15.07541,15.22401 h 5.95082 c 9.52131,0 13.88525,-2.60983 13.88525,-7.39452 0,-2.60983 -10.71148,-48.28186 -31.7377,-137.0161 -24.2,-92.64898 -36.10164,-139.19096 -36.10164,-139.62593 -1.19017,-3.47978 -3.17377,-5.65464 -5.15738,-6.08961 -1.9836,-0.86994 -7.93442,-1.30491 -17.85245,-2.17486 h -15.86886 c -3.96721,3.91475 -5.95082,6.95955 -5.95082,9.13441 0,0.43497 0,3.0448 0.79345,6.95955 0.79344,3.91474 1.19016,10.87429 1.9836,20.0087 0.79345,9.13441 1.19017,20.0087 1.19017,32.18791 0,46.97695 -10.71148,88.29926 -32.13443,123.96695 -21.42295,35.23271 -57.52458,53.06655 -109.09835,53.93649 -17.45573,0 -36.10164,-2.60983 -55.9377,-6.95954 -19.83606,-4.78469 -44.03606,-12.61418 -71.80655,-23.92345 -28.16721,-11.74424 -55.9377,-30.01305 -83.31147,-56.11135 -27.37377,-26.09831 -51.57377,-56.98131 -72.99672,-93.08396 -21.02622,-37.84254 -38.08524,-82.20966 -50.78032,-133.10136 -12.69508,-50.45672 -19.04262,-91.77904 -19.04262,-123.96695 0,-76.12005 25.39016,-130.491524 75.77376,-163.984349 C 263.9599,35.3444 303.2353,24.035134 350.04842,24.035134 c 60.69835,0 114.65245,22.618532 161.86228,67.855594 47.60655,45.237062 78.94753,94.823842 94.02294,148.325372 2.77705,8.26446 4.76066,13.48412 5.95082,14.78904 1.58689,1.30491 6.74426,2.17486 16.26557,2.17486 13.09181,0 19.83607,-3.04481 19.83607,-9.13441 0,-3.47978 -0.39672,-6.52458 -0.79345,-9.13441 C 627.75331,167.57581 586.4943,106.2448 523.01889,54.918129 459.54349,3.591462 391.70415,-22.071872 319.10416,-22.071872 243.72711,-22.071872 179.85499,3.15649 127.8845,53.178242 75.914012,103.19999 50.127128,169.3157 50.127128,251.96033 Z m 0,0"
       transform="matrix(0.00984633,0,0,-0.00898047,86.881432,56.161159)"
       id="path65" />
  </g>
  <path
     fill-rule="nonzero"
     fill="rgb(100%, 100%, 100%)"
     fill-opacity="1"
     stroke-width="1"
     stroke-linecap="butt"
     stroke-linejoin="miter"
     stroke="rgb(74.508667%, 74.508667%, 74.508667%)"
     stroke-opacity="1"
     stroke-miterlimit="4"
     d="M 171.000904 77.998315 C 171.000904 78.655467 170.938318 79.307403 170.807931 79.948908 C 170.677544 80.595629 170.489786 81.221487 170.239443 81.826484 C 169.989099 82.431481 169.681385 83.0104 169.316301 83.558026 C 168.951217 84.100437 168.533978 84.606339 168.069799 85.070518 C 167.605621 85.534696 167.099719 85.951935 166.557308 86.317019 C 166.009682 86.676888 165.435978 86.989817 164.825766 87.240161 C 164.220769 87.490504 163.59491 87.678262 162.953405 87.808649 C 162.306685 87.933821 161.654749 88.001622 160.997597 88.001622 C 160.345661 88.001622 159.693725 87.933821 159.047005 87.808649 C 158.4055 87.678262 157.779641 87.490504 157.174644 87.240161 C 156.564432 86.989817 155.990728 86.676888 155.443102 86.317019 C 154.900691 85.951935 154.394789 85.534696 153.930611 85.070518 C 153.466432 84.606339 153.049193 84.100437 152.684109 83.558026 C 152.319025 83.0104 152.011311 82.431481 151.760967 81.826484 C 151.510624 81.221487 151.317651 80.595629 151.192479 79.948908 C 151.062092 79.307403 150.999506 78.655467 150.999506 77.998315 C 150.999506 77.341164 151.062092 76.694443 151.192479 76.047723 C 151.317651 75.406218 151.510624 74.780359 151.760967 74.175362 C 152.011311 73.56515 152.319025 72.991447 152.684109 72.44382 C 153.049193 71.896194 153.466432 71.395507 153.930611 70.931329 C 154.394789 70.46715 154.900691 70.049911 155.443102 69.684827 C 155.990728 69.319743 156.564432 69.012029 157.174644 68.761685 C 157.779641 68.511342 158.4055 68.318369 159.047005 68.193197 C 159.693725 68.06281 160.345661 68.000224 160.997597 68.000224 C 161.654749 68.000224 162.306685 68.06281 162.953405 68.193197 C 163.59491 68.318369 164.220769 68.511342 164.825766 68.761685 C 165.435978 69.012029 166.009682 69.319743 166.557308 69.684827 C 167.099719 70.049911 167.605621 70.46715 168.069799 70.931329 C 168.533978 71.395507 168.951217 71.896194 169.316301 72.44382 C 169.681385 72.991447 169.989099 73.56515 170.239443 74.175362 C 170.489786 74.780359 170.677544 75.406218 170.807931 76.047723 C 170.938318 76.694443 171.000904 77.341164 171.000904 77.998315 Z M 171.000904 77.998315 "
     transform="matrix(0.748971, 0, 0, 0.748971, 0.374486, 0.374486)"
     id="path69" />
  <g
     clip-path="url(#clip-2)"
     id="g73">
    <path
       fill-rule="nonzero"
       fill="#bebebe"
       fill-opacity="1"
       d="m 119.43359,55.765625 c 0,-0.04297 -0.17187,-0.07031 -0.51562,-0.08203 -0.13672,0 -0.22656,-0.0039 -0.26953,-0.0078 -0.043,-0.0078 -0.0625,-0.03125 -0.0625,-0.08203 0,-0.04687 0.0117,-0.105469 0.0352,-0.179687 0.0234,-0.07031 0.043,-0.117188 0.0625,-0.132813 0.0117,-0.0078 0.61329,-0.0078 1.80079,-0.0078 1.0039,0.0039 1.5664,0.0078 1.6875,0.0078 0.12109,0 0.24218,0.01563 0.36328,0.05469 0.43359,0.101562 0.80078,0.335937 1.10156,0.707031 0.30078,0.371094 0.45703,0.867187 0.46094,1.492187 0,0.933594 -0.32032,1.769532 -0.96485,2.511719 -0.64453,0.742188 -1.40625,1.183594 -2.28125,1.328125 l -0.125,0.01953 -1.7539,0.0078 h -1.48047 c -0.14453,0 -0.23828,-0.0039 -0.28125,-0.01563 -0.043,-0.01563 -0.0664,-0.03906 -0.0742,-0.08203 0,-0.01172 0.0117,-0.05469 0.0273,-0.125 0.0234,-0.09766 0.0508,-0.152344 0.0742,-0.164063 0.0234,-0.01172 0.0937,-0.01953 0.20703,-0.02734 0.16407,0 0.34375,-0.0078 0.54297,-0.02734 0.082,-0.01563 0.14063,-0.05078 0.17188,-0.105469 0.0156,-0.02344 0.23437,-0.855469 0.64843,-2.496094 0.41797,-1.640625 0.625,-2.503906 0.625,-2.59375 z m 3.76172,1.425781 c 0,-0.226562 -0.0352,-0.429687 -0.10156,-0.609375 -0.0664,-0.179687 -0.14453,-0.320312 -0.23437,-0.421875 -0.0898,-0.101562 -0.19922,-0.1875 -0.33204,-0.261718 -0.13281,-0.07031 -0.25,-0.117188 -0.35546,-0.140625 -0.10157,-0.02734 -0.20704,-0.04687 -0.31641,-0.0625 -0.0117,0 -0.0547,0 -0.125,0 -0.0742,0 -0.16016,0 -0.26172,0 -0.10156,0 -0.20312,-0.0039 -0.30078,-0.01172 h -0.38672 c -0.26562,0 -0.41797,0.03125 -0.45312,0.08984 -0.0117,0.02344 -0.23047,0.886718 -0.66016,2.585937 -0.42578,1.699219 -0.64063,2.558594 -0.64063,2.578125 0,0.02344 0.0312,0.03516 0.0977,0.03516 0.0664,0 0.30078,0.0039 0.69922,0.0078 0.0273,0 0.0859,0 0.17187,0 0.082,0 0.15625,0.0039 0.21485,0.0078 0.76172,0 1.38672,-0.242187 1.8789,-0.734375 0.21875,-0.214843 0.39844,-0.46875 0.53516,-0.753906 0.14063,-0.289062 0.26953,-0.667969 0.39063,-1.140625 0.11718,-0.472656 0.17968,-0.863281 0.17968,-1.167969 z m 0,0"
       id="path71" />
  </g>
  <g
     clip-path="url(#clip-3)"
     id="g77">
    <path
       fill="none"
       stroke-width="13.2742"
       stroke-linecap="butt"
       stroke-linejoin="miter"
       stroke="#bebebe"
       stroke-opacity="0.0392"
       stroke-miterlimit="4"
       d="m 286.95536,627.96539 c 0,4.78666 -19.01254,7.83272 -57.03762,9.13817 -15.12362,0 -25.06199,0.43515 -29.81513,0.8703 -4.75313,0.8703 -6.91365,3.48121 -6.91365,9.13817 0,5.22182 1.29631,11.74908 3.88893,20.01695 2.59262,7.83272 4.75314,13.05453 6.91365,14.79513 1.29631,0.8703 67.84021,0.8703 199.19958,0.8703 111.05053,-0.43515 173.27339,-0.8703 186.66859,-0.8703 13.3952,0 26.7904,-1.7406 40.1856,-6.09211 47.96345,-11.31393 88.58115,-37.42299 121.8531,-78.76233 33.27195,-41.33934 50.55608,-96.60352 50.98818,-166.22768 0,-104.00108 -35.43246,-197.12339 -106.72949,-279.80208 C 624.86007,68.361224 540.59994,19.189163 443.80882,3.088577 L 429.98152,0.912822 235.96718,0.0425199 H 72.200065 c -15.987819,0 -26.358296,0.4351511 -31.111431,1.7406041 -4.753135,1.740604 -7.345755,4.35151 -8.209961,9.138171 0,1.305452 1.29631,6.092113 3.024722,13.924831 2.59262,10.878775 5.617342,16.970888 8.209961,18.276341 2.59262,1.305453 10.370477,2.175755 22.90147,3.046057 18.148335,0 38.025084,0.870302 60.062344,3.046057 9.07417,1.740604 15.55572,5.656963 19.01254,11.749077 1.72842,2.610906 25.9262,95.298062 71.72914,278.061482 46.23504,182.76341 69.13651,278.93178 69.13651,288.94025 z M 703.07075,469.13528 c 0,25.23876 -3.88893,47.86661 -11.23469,67.88355 -7.34575,20.01695 -15.98781,35.68239 -25.92619,46.99631 -9.93837,11.31393 -22.03726,20.88725 -36.72877,29.15512 -14.69151,7.83271 -27.65461,13.05453 -39.32139,15.66543 -11.23468,3.04606 -22.90147,5.22181 -35.00036,6.96242 -1.29631,0 -6.04945,0 -13.8273,0 -8.20996,0 -17.71624,0 -28.95092,0 -11.23468,0 -22.46937,0.43515 -33.27195,1.30545 h -42.77821 c -29.38302,0 -46.23505,-3.48121 -50.12398,-10.00847 -1.29631,-2.61091 -25.49408,-98.77927 -73.02544,-288.06995 C 265.7823,149.73446 242.01663,54.001242 242.01663,51.825487 c 0,-2.610906 3.45682,-3.916359 10.80258,-3.916359 7.34575,0 33.27194,-0.435151 77.34647,-0.870302 3.02472,0 9.50627,0 19.01254,0 9.07417,0 17.28413,-0.435151 23.76568,-0.870302 84.26012,0 153.39664,26.979361 207.84164,81.808386 24.19778,23.9333 44.07453,52.21812 59.19814,83.98414 15.55572,32.20117 29.81512,74.41082 43.21032,127.06409 12.9631,52.65327 19.87675,96.16836 19.87675,130.11014 z m 0,0"
       transform="matrix(0.00904009,0,0,-0.00897677,116.83949,61.402725)"
       id="path75" />
  </g>
  <path
     fill-rule="nonzero"
     fill="rgb(100%, 100%, 100%)"
     fill-opacity="1"
     stroke-width="1"
     stroke-linecap="butt"
     stroke-linejoin="miter"
     stroke="rgb(74.508667%, 74.508667%, 74.508667%)"
     stroke-opacity="1"
     stroke-miterlimit="4"
     d="M 201.000393 92.99806 C 201.000393 93.655211 200.937807 94.307148 200.80742 94.948653 C 200.682248 95.595373 200.489275 96.221232 200.238932 96.826228 C 199.988588 97.431225 199.680874 98.010144 199.31579 98.557771 C 198.950706 99.100181 198.533467 99.606084 198.069289 100.070262 C 197.60511 100.534441 197.099208 100.95168 196.556797 101.316764 C 196.009171 101.681848 195.435467 101.989562 194.825255 102.239905 C 194.220258 102.490249 193.5944 102.678006 192.952894 102.808394 C 192.306174 102.933565 191.654238 103.001367 191.002302 103.001367 C 190.34515 103.001367 189.693214 102.933565 189.046494 102.808394 C 188.404989 102.678006 187.77913 102.490249 187.174133 102.239905 C 186.569137 101.989562 185.990217 101.681848 185.442591 101.316764 C 184.90018 100.95168 184.394278 100.534441 183.9301 100.070262 C 183.465921 99.606084 183.048682 99.100181 182.683598 98.557771 C 182.318514 98.010144 182.0108 97.431225 181.760456 96.826228 C 181.510113 96.221232 181.322355 95.595373 181.191968 94.948653 C 181.061581 94.307148 180.998995 93.655211 180.998995 92.99806 C 180.998995 92.340908 181.061581 91.694188 181.191968 91.047467 C 181.322355 90.405962 181.510113 89.780104 181.760456 89.175107 C 182.0108 88.564895 182.318514 87.991191 182.683598 87.443565 C 183.048682 86.895939 183.465921 86.395252 183.9301 85.931073 C 184.394278 85.466895 184.90018 85.049656 185.442591 84.684571 C 185.990217 84.319487 186.569137 84.011773 187.174133 83.76143 C 187.77913 83.511087 188.404989 83.318114 189.046494 83.192942 C 189.693214 83.062555 190.34515 82.999969 191.002302 82.999969 C 191.654238 82.999969 192.306174 83.062555 192.952894 83.192942 C 193.5944 83.318114 194.220258 83.511087 194.825255 83.76143 C 195.435467 84.011773 196.009171 84.319487 196.556797 84.684571 C 197.099208 85.049656 197.60511 85.466895 198.069289 85.931073 C 198.533467 86.395252 198.950706 86.895939 199.31579 87.443565 C 199.680874 87.991191 199.988588 88.564895 200.238932 89.175107 C 200.489275 89.780104 200.682248 90.405962 200.80742 91.047467 C 200.937807 91.694188 201.000393 92.340908 201.000393 92.99806 Z M 201.000393 92.99806 "
     transform="matrix(0.748971, 0, 0, 0.748971, 0.374486, 0.374486)"
     id="path79" />
  <g
     clip-path="url(#clip-4)"
     id="g83">
    <path
       fill-rule="nonzero"
       fill="#bebebe"
       fill-opacity="1"
       d="m 144.12891,70.726563 c -0.13282,0 -0.19532,-0.03906 -0.19532,-0.117188 0,-0.02344 0.0156,-0.09766 0.0469,-0.214844 0.0352,-0.121093 0.0508,-0.226562 0.0508,-0.316406 0,-0.183594 -0.0703,-0.296875 -0.20703,-0.339844 -0.13672,-0.04297 -0.45313,-0.0625 -0.94922,-0.0625 h -0.50781 c -0.008,0.01172 -0.1211,0.425782 -0.34375,1.238282 -0.22266,0.8125 -0.33594,1.234375 -0.33594,1.257812 0,0.02344 0.0391,0.03516 0.10937,0.03516 0.0703,0 0.33204,0.0078 0.78516,0.01953 0.61328,0 1.01953,-0.0078 1.21484,-0.01953 0.19532,-0.01172 0.39063,-0.05078 0.58594,-0.117187 0.32031,-0.09375 0.58594,-0.261719 0.79297,-0.503906 0.21094,-0.238282 0.44141,-0.628907 0.69531,-1.175782 0.0664,-0.128906 0.10938,-0.203125 0.12891,-0.214843 0.0469,-0.01172 0.0937,-0.01563 0.14844,-0.01563 0.1289,0 0.19531,0.03516 0.19531,0.113281 -0.6875,1.523437 -1.04688,2.296875 -1.07813,2.328125 -0.0195,0.01172 -0.95312,0.01563 -2.80078,0.01563 h -1.85156 c -0.66797,0 -1,-0.03125 -1,-0.09766 0,-0.01172 0.008,-0.05469 0.0273,-0.125 0.0273,-0.09766 0.0547,-0.148438 0.0781,-0.160157 0.0273,-0.01172 0.10156,-0.02344 0.22656,-0.02734 0.17578,0 0.3711,-0.01172 0.58985,-0.02734 0.0898,-0.01953 0.15234,-0.05469 0.18359,-0.109375 0.0156,-0.02734 0.24609,-0.871094 0.69531,-2.523438 0.45313,-1.652343 0.67969,-2.488281 0.6875,-2.515625 0,-0.03906 -0.0156,-0.0625 -0.0391,-0.0625 -0.0547,-0.01563 -0.22656,-0.03125 -0.51953,-0.04297 h -0.30469 c -0.0391,-0.03516 -0.0586,-0.05859 -0.0586,-0.07031 0,-0.01563 0.008,-0.06641 0.0195,-0.15625 0.0273,-0.101562 0.0586,-0.164062 0.0977,-0.1875 h 5.42579 c 0.0469,0.02344 0.0703,0.05859 0.0703,0.09766 0,0.03125 -0.043,0.367188 -0.12891,1.007813 -0.082,0.640625 -0.1289,0.96875 -0.13672,0.988281 -0.0117,0.04297 -0.0781,0.0625 -0.19531,0.0625 h -0.11719 c -0.0469,-0.03125 -0.0664,-0.07031 -0.0664,-0.117187 l 0.0273,-0.207032 c 0.0195,-0.144531 0.0312,-0.296875 0.0312,-0.464843 0,-0.179688 -0.0234,-0.332032 -0.0703,-0.449219 -0.0469,-0.121094 -0.10938,-0.214844 -0.1875,-0.28125 -0.0781,-0.0625 -0.19141,-0.113281 -0.33985,-0.140625 -0.15234,-0.03125 -0.30468,-0.05078 -0.46093,-0.06641 -0.15625,-0.01172 -0.36719,-0.01563 -0.62891,-0.01563 h -0.46094 c -0.57422,0.0039 -0.875,0.01563 -0.91015,0.02734 -0.0273,0.01172 -0.0469,0.03906 -0.0586,0.07813 -0.008,0.01953 -0.10547,0.386719 -0.30468,1.105469 -0.19532,0.71875 -0.29688,1.085938 -0.30079,1.097656 0.14844,0.0039 0.30469,0.0078 0.46875,0.0078 h 0.25391 c 0.43359,0 0.73047,-0.04297 0.89063,-0.132813 0.16406,-0.08984 0.3125,-0.335937 0.4414,-0.730468 0.0273,-0.09375 0.0469,-0.148438 0.0586,-0.160157 0.0156,-0.01172 0.0703,-0.01953 0.16796,-0.02734 0.0312,0 0.0586,0 0.0781,0 0.0195,0 0.0352,0.0039 0.0508,0.0078 0.0117,0.0078 0.0195,0.01172 0.0195,0.01172 0,0 0.004,0.01172 0.0195,0.03516 0.0117,0.02344 0.0195,0.03516 0.0273,0.03516 l -0.32422,1.1875 c -0.21485,0.792969 -0.33203,1.199219 -0.35156,1.210938 -0.0195,0.01563 -0.0703,0.02734 -0.15625,0.02734 z m 0,0"
       id="path81" />
  </g>
  <g
     clip-path="url(#clip-5)"
     id="g87">
    <path
       fill="none"
       stroke-width="12.2497"
       stroke-linecap="butt"
       stroke-linejoin="miter"
       stroke="#bebebe"
       stroke-opacity="0.0392"
       stroke-miterlimit="4"
       d="m 492.02992,212.90196 c -13.55758,0 -19.93761,4.34972 -19.93761,13.04915 0,2.60983 1.595,10.8743 4.78502,23.92345 3.58877,13.48412 5.18378,25.22836 5.18378,35.23271 0,20.44367 -7.17754,33.05785 -21.13387,37.84254 -13.95633,4.78469 -46.25527,6.95955 -96.89681,6.95955 h -51.8378 c -0.7975,-1.30491 -12.36132,-47.41192 -35.0902,-137.88605 -22.72888,-90.47412 -34.2927,-137.451069 -34.2927,-140.0609 0,-2.60983 3.98752,-3.914745 11.16506,-3.914745 7.17755,0 33.89395,-0.869944 80.14922,-2.174859 62.60411,0 104.07435,0.869943 124.01196,2.174859 19.93762,1.304915 39.87524,5.654632 59.81285,13.049152 32.69769,10.439322 59.81285,29.143108 80.94672,56.111353 21.53262,26.53328 45.05901,70.03046 70.97791,130.9265 6.77879,14.35407 11.16506,22.61853 13.15883,23.92345 4.78502,1.30491 9.57005,1.73988 15.15258,1.73988 13.15883,0 19.93762,-3.91474 19.93762,-12.61418 C 647.94207,91.54484 611.25686,5.420433 608.06684,1.940659 606.07308,0.635743 510.77128,0.200772 322.16144,0.200772 H 133.15285 c -68.186649,0 -102.080595,3.479774 -102.080595,10.874294 0,1.304915 0.797505,6.089604 2.791266,13.919096 2.791266,10.874293 5.582533,16.528926 7.975046,17.833842 2.791267,1.304915 10.36756,2.60983 23.127634,3.044802 17.943854,0 37.881469,1.304915 60.211599,3.044802 9.1713,2.174859 15.55134,6.089605 18.74136,12.179209 1.59501,3.044803 25.12139,96.998703 70.97791,280.991753 46.25527,183.99305 69.3829,277.07701 70.1804,280.12181 0,4.34972 -1.59501,6.95955 -3.98752,6.95955 -5.58253,1.73988 -23.12763,3.47977 -53.03406,4.78469 h -31.10268 c -3.98752,3.91474 -5.98128,6.52457 -5.98128,7.82949 0,1.73989 0.7975,7.39452 1.99376,17.39887 2.79127,11.30927 5.98129,18.26881 9.96881,20.87864 h 553.86695 c 4.78503,-2.60983 7.17754,-6.52457 7.17754,-10.87429 0,-3.47977 -4.38627,-40.88735 -13.15882,-112.22271 -8.3738,-71.33537 -13.15883,-107.873 -13.95633,-110.04786 -1.19626,-4.78469 -7.97505,-6.95954 -19.93762,-6.95954 h -11.96257 c -4.78503,3.47977 -6.77879,7.82949 -6.77879,13.04915 l 2.79127,23.0535 c 1.99376,16.09396 3.19002,33.05785 3.19002,51.76164 0,20.0087 -2.39252,36.9726 -7.17754,50.02175 -4.78503,13.48413 -11.16507,23.92345 -19.14011,31.31797 -7.97505,6.95955 -19.53887,12.61418 -34.69145,15.65898 -15.55135,3.47977 -31.10269,5.65463 -47.05278,7.39452 -15.95009,1.30492 -37.48271,1.73989 -64.19912,1.73989 h -47.05277 c -58.61659,-0.43497 -89.32052,-1.73989 -92.90929,-3.04481 -2.79126,-1.30491 -4.78503,-4.34971 -5.98128,-8.69943 -0.79751,-2.17486 -10.76632,-43.0622 -31.10268,-123.09701 -19.93762,-80.0348 -30.30518,-120.92214 -30.70393,-122.22706 15.15259,-0.43497 31.10268,-0.86994 47.85028,-0.86994 h 25.9189 c 44.2615,0 74.56668,4.78469 90.91552,14.78904 16.7476,10.00435 31.90019,37.40757 45.05901,81.33971 2.79127,10.43933 4.78503,16.52893 5.98129,17.83385 1.59501,1.30491 7.17754,2.17486 17.14635,3.0448 3.19001,0 5.98128,0 7.97504,0 1.99377,0 3.58877,-0.43497 5.18378,-0.86994 1.19626,-0.86995 1.99376,-1.30492 1.99376,-1.30492 0,0 0.39876,-1.30492 1.99377,-3.91475 1.19625,-2.60983 1.99376,-3.91474 2.79126,-3.91474 L 543.86772,350.78801 c -21.93138,-88.29927 -33.89395,-133.53633 -35.88771,-134.84125 -1.99376,-1.73989 -7.17754,-3.0448 -15.95009,-3.0448 z m 0,0"
       transform="matrix(0.00979618,0,0,-0.00898047,139.30889,72.638522)"
       id="path85" />
  </g>
  <path
     fill-rule="nonzero"
     fill="rgb(0%, 0%, 0%)"
     fill-opacity="1"
     stroke-width="1"
     stroke-linecap="butt"
     stroke-linejoin="miter"
     stroke="rgb(0%, 0%, 0%)"
     stroke-opacity="1"
     stroke-miterlimit="4"
     d="M 116.000023 194.498366 L 125.998114 194.498366 L 125.998114 204.501672 L 116.000023 204.501672 Z M 116.000023 194.498366 "
     transform="matrix(0.000000000000000046, -0.748971, 0.748971, 0.000000000000000046, -58.419746, 240.419726)"
     id="path89" />
  <path
     fill-rule="nonzero"
     fill="rgb(0%, 0%, 0%)"
     fill-opacity="1"
     stroke-width="1"
     stroke-linecap="butt"
     stroke-linejoin="miter"
     stroke="rgb(0%, 0%, 0%)"
     stroke-opacity="1"
     stroke-miterlimit="10"
     d="M 114.99777 188.498051 L 126.998609 197.499984 L 114.99777 206.501917 Z M 114.99777 188.498051 "
     transform="matrix(-0.000000000000000138, 0.748971, -0.748971, -0.000000000000000138, 238.921778, 57.670776)"
     id="path91" />
  <path
     fill-rule="nonzero"
     fill="rgb(74.508667%, 74.508667%, 74.508667%)"
     fill-opacity="1"
     d="M 90.625 143.800781 L 90.625 141.554688 L 91.375 141.554688 L 91.375 143.800781 M 90.625 139.308594 L 90.625 137.0625 L 91.375 137.0625 L 91.375 139.308594 M 90.625 134.816406 L 90.625 132.566406 L 91.375 132.566406 L 91.375 134.816406 M 90.625 130.320313 L 90.625 128.074219 L 91.375 128.074219 L 91.375 130.320313 M 90.625 125.828125 L 90.625 123.582031 L 91.375 123.582031 L 91.375 125.828125 M 90.625 121.332031 L 90.625 119.085938 L 91.375 119.085938 L 91.375 121.332031 M 90.625 116.839844 L 90.625 114.59375 L 91.375 114.59375 L 91.375 116.839844 M 90.625 112.34375 L 90.625 110.097656 L 91.375 110.097656 L 91.375 112.34375 M 90.625 107.851563 L 90.625 105.605469 L 91.375 105.605469 L 91.375 107.851563 M 90.625 103.359375 L 90.625 101.109375 L 91.375 101.109375 L 91.375 103.359375 M 90.625 98.863281 L 90.625 96.617188 L 91.375 96.617188 L 91.375 98.863281 M 90.625 94.371094 L 90.625 92.125 L 91.375 92.125 L 91.375 94.371094 M 90.625 89.875 L 90.625 87.628906 L 91.375 87.628906 L 91.375 89.875 M 90.625 85.382813 L 90.625 83.136719 L 91.375 83.136719 L 91.375 85.382813 M 90.625 80.890625 L 90.625 78.640625 L 91.375 78.640625 L 91.375 80.890625 M 90.625 76.394531 L 90.625 74.148438 L 91.375 74.148438 L 91.375 76.394531 M 90.625 71.902344 L 90.625 69.65625 L 91.375 69.65625 L 91.375 71.902344 M 90.625 67.40625 L 90.625 65.160156 L 91.375 65.160156 L 91.375 67.40625 M 90.625 62.914063 L 90.625 61.042969 L 91.375 61.042969 L 91.375 62.914063 "
     id="path93" />
  <path
     fill-rule="nonzero"
     fill="rgb(100%, 100%, 100%)"
     fill-opacity="1"
     stroke-width="1"
     stroke-linecap="butt"
     stroke-linejoin="miter"
     stroke="rgb(74.508667%, 74.508667%, 74.508667%)"
     stroke-opacity="1"
     stroke-miterlimit="4"
     d="M 91.000528 77.998315 C 91.000528 78.655467 90.937942 79.307403 90.807555 79.948908 C 90.677168 80.595629 90.48941 81.221487 90.239067 81.826484 C 89.988723 82.431481 89.681009 83.0104 89.315925 83.558026 C 88.950841 84.100437 88.533602 84.606339 88.069423 85.070518 C 87.605245 85.534696 87.099343 85.951935 86.556932 86.317019 C 86.009306 86.676888 85.435602 86.989817 84.82539 87.240161 C 84.220393 87.490504 83.594534 87.678262 82.953029 87.808649 C 82.306309 87.933821 81.654373 88.001622 81.002437 88.001622 C 80.345285 88.001622 79.693349 87.933821 79.046629 87.808649 C 78.405123 87.678262 77.779265 87.490504 77.174268 87.240161 C 76.564056 86.989817 75.990352 86.676888 75.442726 86.317019 C 74.900315 85.951935 74.394413 85.534696 73.930234 85.070518 C 73.466056 84.606339 73.048817 84.100437 72.683733 83.558026 C 72.318649 83.0104 72.010935 82.431481 71.760591 81.826484 C 71.510248 81.221487 71.32249 80.595629 71.192103 79.948908 C 71.061716 79.307403 70.99913 78.655467 70.99913 77.998315 C 70.99913 77.341164 71.061716 76.694443 71.192103 76.047723 C 71.32249 75.406218 71.510248 74.780359 71.760591 74.175362 C 72.010935 73.56515 72.318649 72.991447 72.683733 72.44382 C 73.048817 71.896194 73.466056 71.395507 73.930234 70.931329 C 74.394413 70.46715 74.900315 70.049911 75.442726 69.684827 C 75.990352 69.319743 76.564056 69.012029 77.174268 68.761685 C 77.779265 68.511342 78.405123 68.318369 79.046629 68.193197 C 79.693349 68.06281 80.345285 68.000224 81.002437 68.000224 C 81.654373 68.000224 82.306309 68.06281 82.953029 68.193197 C 83.594534 68.318369 84.220393 68.511342 84.82539 68.761685 C 85.435602 69.012029 86.009306 69.319743 86.556932 69.684827 C 87.099343 70.049911 87.605245 70.46715 88.069423 70.931329 C 88.533602 71.395507 88.950841 71.896194 89.315925 72.44382 C 89.681009 72.991447 89.988723 73.56515 90.239067 74.175362 C 90.48941 74.780359 90.677168 75.406218 90.807555 76.047723 C 90.937942 76.694443 91.000528 77.341164 91.000528 77.998315 Z M 91.000528 77.998315 "
     transform="matrix(0.748971, 0, 0, 0.748971, 0.374486, 0.374486)"
     id="path95" />
  <g
     clip-path="url(#clip-6)"
     id="g99">
    <path
       fill-rule="nonzero"
       fill="#bebebe"
       fill-opacity="1"
       d="m 59.199219,55.683594 c -0.175781,0 -0.28125,-0.0039 -0.316406,-0.0078 -0.03125,-0.0078 -0.04687,-0.03906 -0.04687,-0.101562 0,-0.160156 0.03516,-0.257813 0.109375,-0.292969 0.0039,-0.0078 0.433593,-0.01172 1.28125,-0.01172 1.703125,0 2.597656,0.0078 2.691406,0.01953 0.414062,0.05859 0.757812,0.195312 1.035156,0.402343 0.277344,0.210938 0.417969,0.484375 0.425781,0.828125 0,0.382813 -0.191406,0.726563 -0.574218,1.03125 -0.382813,0.304688 -0.816407,0.511719 -1.3125,0.621094 l -0.09766,0.02734 c 0.421875,0.05078 0.765625,0.191406 1.035157,0.410156 0.269531,0.222656 0.410156,0.5 0.414062,0.828125 0,0.4375 -0.234375,0.859375 -0.710937,1.265625 -0.472657,0.40625 -1.054688,0.636719 -1.742188,0.691406 -0.04687,0.0078 -0.742187,0.0078 -2.082031,0.0078 -1.316406,0 -1.984375,-0.0039 -2.003906,-0.01563 -0.02344,-0.01953 -0.03906,-0.04297 -0.03906,-0.07422 0,-0.03906 0.0078,-0.08203 0.01953,-0.125 0.03516,-0.113281 0.06641,-0.175781 0.101563,-0.1875 0.02344,-0.0078 0.07422,-0.0078 0.148437,-0.0078 h 0.05859 c 0.175781,0 0.375,-0.01172 0.589844,-0.02734 0.09375,-0.01953 0.15625,-0.05469 0.1875,-0.109375 0.01953,-0.02344 0.257812,-0.855469 0.710937,-2.496094 0.453125,-1.640625 0.679688,-2.503906 0.679688,-2.59375 0,-0.04297 -0.1875,-0.07031 -0.5625,-0.08203 z m 4.121094,0.835937 c 0,-0.179687 -0.04687,-0.347656 -0.144532,-0.503906 -0.101562,-0.15625 -0.261718,-0.257812 -0.484375,-0.304687 -0.04687,-0.01172 -0.347656,-0.01953 -0.90625,-0.02734 -0.132812,0 -0.269531,0 -0.414062,0 -0.144531,0 -0.261719,0.0039 -0.347656,0.0078 h -0.128907 c -0.09766,0.0078 -0.160156,0.03906 -0.1875,0.08984 -0.01172,0.02344 -0.117187,0.382813 -0.3125,1.078125 0,0.01953 -0.0039,0.03516 -0.01172,0.05469 l -0.304688,1.132812 H 60.875 c 0.535156,0 0.839844,-0.0078 0.917969,-0.01953 0.394531,-0.05859 0.746094,-0.234375 1.054687,-0.519531 0.308594,-0.289063 0.46875,-0.617188 0.472657,-0.988282 z m -0.53125,2.828125 c 0,-0.265625 -0.07422,-0.480468 -0.226563,-0.65625 -0.152344,-0.171875 -0.347656,-0.273437 -0.589844,-0.304687 -0.04297,-0.0078 -0.3125,-0.0078 -0.820312,-0.0078 -0.777344,0 -1.167969,0 -1.171875,0.0078 0,0.01172 -0.05859,0.230469 -0.167969,0.65625 -0.113281,0.425781 -0.226562,0.847656 -0.347656,1.265625 L 59.289063,60.9375 c 0,0.02344 0.03906,0.03516 0.117187,0.03516 0.07813,0 0.347656,0.0039 0.800781,0.01953 0.582032,0 0.898438,-0.0039 0.945313,-0.01172 0.40625,-0.03906 0.78125,-0.214844 1.125,-0.519531 0.339844,-0.304688 0.511719,-0.675782 0.511719,-1.113282 z m 0,0"
       id="path97" />
  </g>
  <g
     clip-path="url(#clip-7)"
     id="g103">
    <path
       fill="none"
       stroke-width="12.1687"
       stroke-linecap="butt"
       stroke-linejoin="miter"
       stroke="#bebebe"
       stroke-opacity="0.0392"
       stroke-miterlimit="4"
       d="m 230.94308,637.03313 c -17.82523,0 -28.52037,0.43505 -32.08542,0.8701 -3.16893,0.87011 -4.7534,4.35051 -4.7534,11.31133 0,17.83708 3.56505,28.71335 11.09126,32.62881 0.39612,0.8701 43.96891,1.30515 129.92615,1.30515 172.7067,0 263.41733,-0.8701 272.92412,-2.17525 41.98833,-6.52576 76.84657,-21.75254 104.97082,-44.81024 28.12426,-23.49274 42.38445,-53.9463 43.17668,-92.23078 0,-42.63498 -19.4097,-80.91946 -58.2291,-114.85342 -38.81939,-33.93397 -82.7883,-56.99166 -133.09507,-69.17309 l -9.90291,-3.04535 c 42.78056,-5.65567 77.63879,-21.3175 104.97082,-45.68034 27.33202,-24.7979 41.59221,-55.68651 41.98833,-92.23078 0,-48.7257 -23.76698,-95.71119 -72.09317,-140.956479 C 581.90212,32.747503 522.88079,7.079503 453.16432,0.988791 448.41093,0.118689 377.90223,0.118689 242.03434,0.118689 c -133.4912,0 -201.227083,0.435051 -203.207665,1.740204 -2.376698,2.175254 -3.961163,4.785559 -3.961163,8.265966 0,4.350508 0.792233,9.136068 1.980582,13.921627 3.565046,12.616475 6.733977,19.577288 10.299023,20.882441 2.376698,0.870102 7.52621,0.870102 15.05242,0.870102 h 5.941744 c 17.825234,0 38.027169,1.305152 59.813559,3.045355 9.50679,2.175255 15.84465,6.090712 19.01358,12.181424 1.98059,2.610305 26.14368,95.276132 72.09317,277.997492 45.94949,182.72136 68.92424,278.8676 68.92424,288.87377 0,4.78556 -19.01359,7.83091 -57.04075,9.13606 z m 417.90269,-93.10088 c 0,20.01234 -4.75339,38.71953 -14.6563,56.12156 -10.29902,17.40203 -26.53979,28.71336 -49.11842,33.93397 -4.7534,1.30515 -35.25435,2.17525 -91.89898,3.04535 -13.46796,0 -27.33203,0 -41.98833,0 -14.6563,0 -26.53979,-0.43505 -35.25435,-0.8701 h -13.07184 c -9.9029,-0.8701 -16.24077,-4.35051 -19.01358,-10.00617 -1.18835,-2.6103 -11.88349,-42.63498 -31.6893,-120.07403 0,-2.17526 -0.39612,-3.91546 -1.18835,-6.09071 L 320.06925,373.82737 h 80.80772 c 54.26793,0 85.165,0.8701 93.08733,2.17525 40.00775,6.52577 75.65821,26.10306 106.9514,57.86177 31.29319,32.19376 47.53396,68.73803 47.93007,110.06786 z M 594.97396,228.95544 c 0,29.58345 -7.52621,53.51125 -22.97475,73.08854 -15.44853,19.14224 -35.25435,30.45356 -59.81356,33.93396 -4.35728,0.87011 -31.6893,0.87011 -83.18442,0.87011 -78.82715,0 -118.43878,0 -118.83489,-0.87011 0,-1.30515 -5.94175,-25.66799 -17.033,-73.08854 -11.48738,-47.42054 -22.97475,-94.40603 -35.25435,-140.95647 L 240.05375,51.88974 c 0,-2.610305 3.96117,-3.915457 11.88349,-3.915457 7.92233,0 35.25435,-0.435051 81.20384,-2.175254 59.02133,0 91.10675,0.43505 95.86015,1.305152 41.19609,4.350509 79.22326,23.927797 114.08149,57.861759 34.46212,33.93397 51.89124,75.2638 51.89124,123.9895 z m 0,0"
       transform="matrix(0.00986137,0,0,-0.00897884,56.921803,61.403409)"
       id="path101" />
  </g>
  <path
     fill-rule="nonzero"
     fill="rgb(100%, 100%, 100%)"
     fill-opacity="1"
     stroke-width="1"
     stroke-linecap="butt"
     stroke-linejoin="miter"
     stroke="rgb(74.508667%, 74.508667%, 74.508667%)"
     stroke-opacity="1"
     stroke-miterlimit="4"
     d="M 61.001039 92.99806 C 61.001039 93.655211 60.938453 94.307148 60.808066 94.948653 C 60.677679 95.595373 60.489921 96.221232 60.239578 96.826228 C 59.989234 97.431225 59.68152 98.010144 59.316436 98.557771 C 58.951352 99.100181 58.534113 99.606084 58.069934 100.070262 C 57.605756 100.534441 57.099854 100.95168 56.557443 101.316764 C 56.009816 101.681848 55.430897 101.989562 54.825901 102.239905 C 54.220904 102.490249 53.595045 102.678006 52.948325 102.808394 C 52.30682 102.933565 51.654884 103.001367 50.997732 103.001367 C 50.345796 103.001367 49.69386 102.933565 49.047139 102.808394 C 48.405634 102.678006 47.779776 102.490249 47.174779 102.239905 C 46.564567 101.989562 45.990863 101.681848 45.443237 101.316764 C 44.900826 100.95168 44.394924 100.534441 43.930745 100.070262 C 43.466567 99.606084 43.049328 99.100181 42.684244 98.557771 C 42.319159 98.010144 42.011446 97.431225 41.761102 96.826228 C 41.510759 96.221232 41.317786 95.595373 41.192614 94.948653 C 41.062227 94.307148 40.999641 93.655211 40.999641 92.99806 C 40.999641 92.340908 41.062227 91.694188 41.192614 91.047467 C 41.317786 90.405962 41.510759 89.780104 41.761102 89.175107 C 42.011446 88.564895 42.319159 87.991191 42.684244 87.443565 C 43.049328 86.895939 43.466567 86.395252 43.930745 85.931073 C 44.394924 85.466895 44.900826 85.049656 45.443237 84.684571 C 45.990863 84.319487 46.564567 84.011773 47.174779 83.76143 C 47.779776 83.511087 48.405634 83.318114 49.047139 83.192942 C 49.69386 83.062555 50.345796 82.999969 50.997732 82.999969 C 51.654884 82.999969 52.30682 83.062555 52.948325 83.192942 C 53.595045 83.318114 54.220904 83.511087 54.825901 83.76143 C 55.430897 84.011773 56.009816 84.319487 56.557443 84.684571 C 57.099854 85.049656 57.605756 85.466895 58.069934 85.931073 C 58.534113 86.395252 58.951352 86.895939 59.316436 87.443565 C 59.68152 87.991191 59.989234 88.564895 60.239578 89.175107 C 60.489921 89.780104 60.677679 90.405962 60.808066 91.047467 C 60.938453 91.694188 61.001039 92.340908 61.001039 92.99806 Z M 61.001039 92.99806 "
     transform="matrix(0.748971, 0, 0, 0.748971, 0.374486, 0.374486)"
     id="path105" />
  <g
     clip-path="url(#clip-8)"
     id="g109">
    <path
       fill-rule="nonzero"
       fill="#bebebe"
       fill-opacity="1"
       d="m 36.527344,71.972656 c 0,0.144532 0.152344,0.226563 0.460937,0.253907 0.117188,0 0.179688,0.03125 0.179688,0.09766 0,0.0039 -0.0078,0.04297 -0.01953,0.117187 -0.01953,0.08203 -0.04297,0.136719 -0.0625,0.160157 -0.01953,0.02344 -0.0625,0.03516 -0.128907,0.03516 -0.01172,0 -0.05078,0 -0.121093,0 -0.06641,0 -0.179688,-0.0039 -0.335938,-0.0078 -0.160156,-0.0078 -0.375,-0.0078 -0.640625,-0.0078 -0.472656,0 -0.773437,0.0039 -0.90625,0.01563 h -0.08203 c -0.04687,-0.03906 -0.07031,-0.07422 -0.07031,-0.09766 0.01563,-0.160157 0.05859,-0.265625 0.132813,-0.3125 h 0.136719 c 0.46875,-0.01953 0.804687,-0.167969 1.019531,-0.449219 0.03906,-0.03906 0.640625,-0.949219 1.804687,-2.738281 1.164063,-1.792969 1.757813,-2.699219 1.777344,-2.722657 0.04687,-0.07031 0.125,-0.105468 0.238281,-0.105468 h 0.25 c 0.03906,0.05078 0.0625,0.08203 0.0625,0.08984 L 40.5,69.199219 c 0.1875,1.933594 0.285156,2.910156 0.300781,2.925781 0.03125,0.06641 0.25,0.101563 0.648438,0.101563 0.164062,0 0.25,0.02734 0.25,0.08594 0,0.01563 -0.01172,0.05469 -0.03125,0.128906 -0.01953,0.08984 -0.03516,0.140625 -0.05078,0.160157 -0.01172,0.01953 -0.05859,0.03125 -0.140625,0.03516 -0.01953,0 -0.06641,0 -0.136719,0 -0.07422,0 -0.203125,-0.0039 -0.390625,-0.0078 -0.1875,-0.0078 -0.429688,-0.0078 -0.726563,-0.0078 -0.628906,0 -1.035156,0.0039 -1.230468,0.01563 H 38.875 c -0.04297,-0.03516 -0.0625,-0.0625 -0.0625,-0.07813 0,-0.01953 0.0078,-0.07422 0.01953,-0.164063 0.02734,-0.07813 0.04687,-0.125 0.0625,-0.144531 l 0.03906,-0.02344 h 0.199219 c 0.359375,-0.01953 0.574218,-0.07031 0.640625,-0.15625 l -0.121094,-1.34375 h -2.375 l -0.33984,0.519502 c -0.273437,0.414062 -0.410156,0.65625 -0.410156,0.726562 z m 3.074219,-1.667968 c 0,-0.06641 -0.03906,-0.535157 -0.121094,-1.402344 -0.07813,-0.867188 -0.125,-1.304688 -0.136719,-1.308594 l -0.269531,0.382813 c -0.109375,0.164062 -0.316406,0.484375 -0.628906,0.960937 l -0.898438,1.367188 1.027344,0.0078 c 0.683594,0 1.027344,-0.0039 1.027344,-0.0078 z m 0,0"
       id="path107" />
  </g>
  <g
     clip-path="url(#clip-9)"
     id="g113">
    <path
       fill="none"
       stroke-width="12.0245"
       stroke-linecap="butt"
       stroke-linejoin="miter"
       stroke="#bebebe"
       stroke-opacity="0.0392"
       stroke-miterlimit="4"
       d="m 207.89094,74.068706 c 0,-16.098769 15.26548,-25.235909 46.18785,-28.281622 11.74267,0 18.00543,-3.480815 18.00543,-10.877547 0,-0.435102 -0.78285,-4.786121 -1.95712,-13.053057 -1.95711,-9.137139 -4.30564,-15.228566 -6.26275,-17.839177 -1.95712,-2.610611 -6.26276,-3.915917 -12.91694,-3.915917 -1.17427,0 -5.08849,0 -12.1341,0 -6.65418,0 -18.00543,0.435102 -33.66232,0.870204 -16.04832,0.870204 -37.57655,0.870204 -64.19327,0.870204 -47.362113,0 -77.501637,-0.435102 -90.809998,-1.740408 h -8.21987 c -4.697069,4.351019 -7.045603,8.266936 -7.045603,10.877547 1.56569,17.839177 5.871336,29.586928 13.308361,34.808151 h 13.699784 c 46.970686,2.175509 80.633016,18.709381 102.161246,50.036716 3.91422,4.35102 64.19327,105.72976 180.83714,305.00642 116.64387,199.71176 176.14007,300.6554 178.09719,303.26601 4.69707,7.83184 12.52551,11.74775 23.87676,11.74775 h 25.05103 c 3.91423,-5.65632 6.26276,-9.13714 6.26276,-10.00734 l 27.79099,-322.8456 c 18.78828,-215.37543 28.57384,-324.1509 30.13953,-325.891307 3.13138,-7.396732 25.05103,-11.312649 64.97611,-11.312649 16.43974,0 25.05103,-3.045713 25.05103,-9.572242 0,-1.740407 -1.17426,-6.091426 -3.13137,-14.358362 -1.95712,-10.007343 -3.52281,-15.663667 -5.0885,-17.839177 -1.17426,-2.175509 -5.87133,-3.480815 -14.0912,-3.915917 -1.95711,0 -6.65418,0 -13.69978,0 -7.43703,0 -20.35397,0.435102 -39.14224,0.870204 -18.78828,0.870204 -43.05647,0.870204 -72.80457,0.870204 -63.019,0 -103.72693,-0.435102 -123.29805,-1.740408 H 443.1358 c -4.30565,3.915917 -6.26276,6.96163 -6.26276,8.702038 0,2.175509 0.78285,8.266936 1.95711,18.274279 2.73996,8.702038 4.69707,13.92326 6.26276,16.09877 l 3.91422,2.610611 h 19.96255 c 36.01086,2.175509 57.53909,7.831834 64.19327,17.404075 L 521.02885,212.86621 H 283.04404 L 248.99029,154.99766 C 221.59073,108.87686 207.89094,81.90054 207.89094,74.068706 Z M 515.94036,259.85721 c 0,7.39673 -3.91422,59.60896 -12.13409,156.20158 -7.82845,96.59261 -12.52552,145.32403 -13.69978,145.75913 l -27.00815,-42.63999 c -10.95983,-18.27428 -31.70521,-53.95263 -63.019,-107.03506 l -90.02715,-152.28566 102.94409,-0.8702 c 68.49891,0 102.94408,0.4351 102.94408,0.8702 z m 0,0"
       transform="matrix(0.00997963,0,0,-0.00897778,34.452669,72.637629)"
       id="path111" />
  </g>
  <path
     fill-rule="nonzero"
     fill="rgb(100%, 100%, 100%)"
     fill-opacity="1"
     stroke-width="1"
     stroke-linecap="butt"
     stroke-linejoin="miter"
     stroke="rgb(74.508667%, 74.508667%, 74.508667%)"
     stroke-opacity="1"
     stroke-miterlimit="4"
     d="M 130.998108 100.998619 C 130.998108 101.655771 130.935522 102.307707 130.810351 102.949212 C 130.679963 103.595932 130.492206 104.221791 130.236647 104.826788 C 129.986303 105.431784 129.67859 106.010703 129.313505 106.553114 C 128.948421 107.10074 128.536398 107.606643 128.072219 108.070821 C 127.608041 108.535 127.102138 108.952239 126.554512 109.312108 C 126.012101 109.677192 125.433182 109.984906 124.828185 110.240464 C 124.217973 110.490808 123.59733 110.678565 122.95061 110.808953 C 122.309105 110.934124 121.657169 111.001926 121.000017 111.001926 C 120.342865 111.001926 119.690929 110.934124 119.049424 110.808953 C 118.402704 110.678565 117.782061 110.490808 117.171849 110.240464 C 116.566852 109.984906 115.987933 109.677192 115.445522 109.312108 C 114.897896 108.952239 114.391993 108.535 113.927815 108.070821 C 113.463636 107.606643 113.051613 107.10074 112.686529 106.553114 C 112.321444 106.010703 112.013731 105.431784 111.763387 104.826788 C 111.507828 104.221791 111.320071 103.595932 111.189683 102.949212 C 111.064512 102.307707 111.001926 101.655771 111.001926 100.998619 C 111.001926 100.341468 111.064512 99.694747 111.189683 99.048026 C 111.320071 98.406521 111.507828 97.780663 111.763387 97.175666 C 112.013731 96.565454 112.321444 95.99175 112.686529 95.444124 C 113.051613 94.896498 113.463636 94.395811 113.927815 93.926417 C 114.391993 93.462238 114.897896 93.050215 115.445522 92.685131 C 115.987933 92.320046 116.566852 92.012333 117.171849 91.761989 C 117.782061 91.511646 118.402704 91.318673 119.049424 91.193501 C 119.690929 91.063114 120.342865 91.000528 121.000017 91.000528 C 121.657169 91.000528 122.309105 91.063114 122.95061 91.193501 C 123.59733 91.318673 124.217973 91.511646 124.828185 91.761989 C 125.433182 92.012333 126.012101 92.320046 126.554512 92.685131 C 127.102138 93.050215 127.608041 93.462238 128.072219 93.926417 C 128.536398 94.395811 128.948421 94.896498 129.313505 95.444124 C 129.67859 95.99175 129.986303 96.565454 130.236647 97.175666 C 130.492206 97.780663 130.679963 98.406521 130.810351 99.048026 C 130.935522 99.694747 130.998108 100.341468 130.998108 100.998619 Z M 130.998108 100.998619 "
     transform="matrix(0.748971, 0, 0, 0.748971, 0.374486, 0.374486)"
     id="path115" />
  <g
     clip-path="url(#clip-10)"
     id="g119">
    <path
       fill-rule="nonzero"
       fill="#bebebe"
       fill-opacity="1"
       d="m 85.832031,76.367188 c 0,-0.6875 0.199219,-1.347657 0.601563,-1.984375 0.398437,-0.632813 0.902344,-1.136719 1.515625,-1.507813 0.609375,-0.371094 1.21875,-0.558594 1.828125,-0.566406 0.535156,0 0.964844,0.152344 1.28125,0.457031 0.05469,0.0625 0.09766,0.113281 0.132812,0.152344 0.03906,0.04297 0.0625,0.07422 0.07422,0.08984 l 0.0078,0.02734 c 0.01953,0 0.09766,-0.07813 0.242187,-0.234375 0.04297,-0.03516 0.08594,-0.07422 0.132813,-0.125 0.05078,-0.04687 0.09766,-0.09375 0.144531,-0.144531 0.04687,-0.04687 0.07813,-0.07813 0.08984,-0.09766 l 0.136718,-0.132813 h 0.05078 c 0.08594,0 0.128906,0.01953 0.128906,0.0625 0,0.02344 -0.09766,0.433594 -0.289063,1.230469 -0.214843,0.832031 -0.324218,1.25 -0.324218,1.257813 -0.01172,0.02734 -0.02344,0.04687 -0.04297,0.05469 -0.01953,0.0039 -0.07031,0.01172 -0.160156,0.01563 h -0.144532 c -0.03516,-0.03516 -0.05469,-0.0625 -0.05469,-0.07813 0,-0.0078 0.0039,-0.02734 0.0078,-0.06641 0.0078,-0.03516 0.01172,-0.09375 0.01953,-0.179688 0.0078,-0.08203 0.0078,-0.179687 0.0078,-0.285156 0,-0.425781 -0.09375,-0.796875 -0.285156,-1.113281 -0.191406,-0.320313 -0.519531,-0.480469 -0.976563,-0.488281 -0.15625,0 -0.324218,0.02344 -0.503906,0.06641 -0.179687,0.03906 -0.394531,0.113281 -0.644531,0.214844 -0.25,0.101562 -0.5,0.269531 -0.746094,0.503906 -0.242187,0.230469 -0.460937,0.511719 -0.652344,0.832031 -0.191406,0.34375 -0.34375,0.742188 -0.457031,1.195313 -0.113281,0.457031 -0.171875,0.828125 -0.171875,1.113281 0,0.683594 0.226563,1.175781 0.683594,1.476562 0.285156,0.203125 0.636719,0.304688 1.054687,0.304688 0.546875,0 1.03125,-0.203125 1.453125,-0.613281 0.425782,-0.40625 0.707032,-0.847657 0.84375,-1.328125 0.02344,-0.07813 0.04297,-0.121094 0.05469,-0.132813 0.01172,-0.01172 0.05859,-0.01953 0.144531,-0.01953 0.117188,0 0.175781,0.02734 0.175781,0.08203 0,0.02734 0,0.05469 -0.0078,0.07813 -0.171875,0.640625 -0.542969,1.195313 -1.109375,1.65625 -0.570313,0.460938 -1.179688,0.691406 -1.832031,0.691406 -0.675782,0 -1.246094,-0.226562 -1.710938,-0.675781 -0.46875,-0.449219 -0.699219,-1.042969 -0.699219,-1.789062 z m 0,0"
       id="path117" />
  </g>
  <g
     clip-path="url(#clip-11)"
     id="g123">
    <path
       fill="none"
       stroke-width="13.3574"
       stroke-linecap="butt"
       stroke-linejoin="miter"
       stroke="#bebebe"
       stroke-opacity="0.0392"
       stroke-miterlimit="4"
       d="m 50.080896,252.21717 c 0,76.52678 22.219006,150.00988 67.092684,220.88412 44.43801,70.43942 100.63902,126.53007 169.03871,167.83714 67.96402,41.30706 135.92803,62.178 203.89205,63.04763 59.68635,0 107.60969,-16.95764 142.8987,-50.87292 6.09934,-6.95698 10.89167,-12.60953 14.81267,-16.95764 4.35667,-4.78292 6.97067,-8.26141 8.27767,-10.00066 l 0.87133,-3.04368 c 2.17834,0 10.89167,8.69623 27.01134,26.08868 4.79234,3.9133 9.58467,8.26141 14.81267,13.91396 5.66367,5.21773 10.89167,10.43547 16.11967,16.08801 5.228,5.21774 8.71334,8.69623 10.02034,10.87029 l 15.24834,14.78358 h 5.66366 c 9.58467,0 14.37701,-2.17406 14.37701,-6.95698 0,-2.60887 -10.89167,-48.26405 -32.23934,-136.96554 -23.96168,-92.6148 -36.16035,-139.1396 -36.16035,-140.00923 -1.307,-3.04367 -2.614,-5.21773 -4.79233,-6.08735 -2.17833,-0.43481 -7.842,-1.30444 -17.86234,-1.73925 h -16.11967 c -3.921,3.9133 -6.09933,6.95698 -6.09933,8.69623 0,0.86962 0.43566,3.04368 0.87133,7.39179 0.87133,3.9133 1.307,10.43547 2.17833,20.00132 0.87134,9.13103 0.87134,20.00131 0.87134,31.74122 0,47.39442 -10.45601,88.70149 -31.80368,123.9212 -21.34767,35.65452 -57.94368,53.48178 -108.91669,54.35141 -17.42667,0 -36.16034,-2.60887 -56.20101,-7.39179 -20.04068,-4.34812 -44.00235,-12.60953 -71.88502,-23.91462 -27.88267,-11.3051 -55.76535,-30.00198 -83.21236,-56.09065 -27.01134,-25.65387 -51.40867,-56.96028 -72.75635,-92.6148 C 204.7426,440.92525 187.7516,396.57451 175.11726,346.1364 162.48292,295.26349 155.94792,253.95642 155.94792,222.2152 c 0,-76.09197 25.26867,-130.878188 76.24169,-164.358654 31.80367,-22.610185 71.01368,-33.915277 117.63003,-33.915277 60.99335,0 115.01602,22.610185 162.06804,68.265365 47.48768,45.220366 78.85568,94.354036 94.10402,147.835826 2.614,8.69622 4.79234,13.47915 6.09934,14.78358 1.307,1.30443 6.535,2.17406 16.11967,2.17406 13.07,0 19.605,-3.04368 19.605,-9.13104 0,-3.04368 0,-6.08736 -0.87133,-8.69623 C 627.77504,167.86379 586.3867,106.12059 523.21501,54.812867 459.60766,3.505141 391.64365,-22.148723 318.8873,-22.148723 c -75.37036,0 -138.97771,25.219052 -190.82205,75.222345 C 75.785236,103.07692 50.080896,169.16822 50.080896,252.21717 Z m 0,0"
       transform="matrix(0.00896614,0,0,-0.00898378,85.382999,78.633052)"
       id="path121" />
  </g>
  <path
     fill-rule="nonzero"
     fill="rgb(74.508667%, 74.508667%, 74.508667%)"
     fill-opacity="1"
     d="M 93.144531 76.308594 L 93.0625 76.339844 C 93.003906 76.363281 92.917969 76.382813 92.808594 76.40625 C 92.699219 76.425781 92.574219 76.441406 92.441406 76.449219 L 92.320313 76.449219 L 92.320313 76.15625 L 92.441406 76.15625 C 92.640625 76.148438 92.824219 76.117188 92.992188 76.0625 C 93.160156 76.007813 93.277344 75.957031 93.347656 75.910156 C 93.414063 75.863281 93.472656 75.816406 93.523438 75.769531 C 93.53125 75.757813 93.558594 75.75 93.601563 75.75 C 93.636719 75.75 93.675781 75.761719 93.707031 75.789063 L 93.707031 77.6875 L 93.714844 79.59375 C 93.742188 79.621094 93.769531 79.640625 93.789063 79.648438 C 93.8125 79.660156 93.863281 79.667969 93.941406 79.675781 C 94.023438 79.683594 94.152344 79.6875 94.335938 79.6875 L 94.5 79.6875 L 94.5 79.980469 L 94.429688 79.980469 C 94.34375 79.96875 94.007813 79.960938 93.421875 79.960938 C 92.847656 79.960938 92.515625 79.96875 92.425781 79.980469 L 92.351563 79.980469 L 92.351563 79.6875 L 92.515625 79.6875 C 92.609375 79.6875 92.691406 79.6875 92.757813 79.6875 C 92.824219 79.6875 92.878906 79.6875 92.914063 79.683594 C 92.953125 79.679688 92.988281 79.671875 93.015625 79.664063 C 93.046875 79.65625 93.0625 79.648438 93.066406 79.648438 C 93.070313 79.648438 93.085938 79.640625 93.105469 79.617188 C 93.128906 79.597656 93.140625 79.589844 93.144531 79.59375 Z M 93.144531 76.308594 "
     id="path125" />
  <g
     clip-path="url(#clip-12)"
     id="g129">
    <path
       fill="none"
       stroke-width="18.8931"
       stroke-linecap="butt"
       stroke-linejoin="miter"
       stroke="#bebebe"
       stroke-opacity="0.0275"
       stroke-miterlimit="4"
       d="m 213.08182,578.13185 -12.94059,-4.92007 c -9.24329,-3.69005 -22.8001,-6.7651 -40.05423,-10.45515 -17.25413,-3.07504 -36.97313,-5.53508 -57.92457,-6.7651 H 83.059647 v 46.12567 h 19.102783 c 31.42716,1.23001 60.38945,6.15009 86.88686,14.76021 26.49741,8.61012 44.98397,16.60524 56.07591,23.98534 10.47572,7.38011 19.71901,14.76022 27.72985,22.14032 1.23244,1.84503 5.54597,3.07505 12.32438,3.07505 5.54597,0 11.70816,-1.84503 16.63791,-6.15009 v -298.8943 l 1.23243,-300.124314 c 4.31354,-4.305062 8.62707,-7.380106 11.70816,-8.610124 3.69732,-1.845027 11.70816,-3.075044 24.03254,-4.305062 12.94059,-1.230018 33.27582,-1.845026 62.2381,-1.845026 h 25.88119 V 0.0235404 H 415.81782 C 402.26101,1.868567 349.26619,3.098585 256.83336,3.098585 166.24919,3.098585 113.87059,1.868567 99.697556,0.0235404 H 87.989398 V 46.149204 h 25.881192 c 14.78925,0 27.72985,0 38.20557,0 10.47572,0 19.10278,0 24.64875,0.615008 6.16219,0.615009 11.70816,1.845027 16.02169,3.075045 4.92975,1.230017 7.39463,2.460035 8.01085,2.460035 0.61622,0 3.08109,1.230018 6.16218,4.920071 3.69732,3.075044 5.54597,4.305062 6.16219,3.690053 z m 0,0"
       transform="matrix(0.00633906,0,0,-0.00635153,91.793792,79.980618)"
       id="path127" />
  </g>
  <path
     fill-rule="nonzero"
     fill="rgb(100%, 100%, 100%)"
     fill-opacity="1"
     stroke-width="1"
     stroke-linecap="butt"
     stroke-linejoin="miter"
     stroke="rgb(74.508667%, 74.508667%, 74.508667%)"
     stroke-opacity="1"
     stroke-miterlimit="4"
     d="M 130.998108 130.998108 C 130.998108 131.65526 130.935522 132.307196 130.810351 132.948701 C 130.679963 133.595421 130.492206 134.22128 130.236647 134.826277 C 129.986303 135.431273 129.67859 136.010192 129.313505 136.557819 C 128.948421 137.10023 128.536398 137.606132 128.072219 138.07031 C 127.608041 138.534489 127.102138 138.951728 126.554512 139.316812 C 126.012101 139.681896 125.433182 139.98961 124.828185 140.239954 C 124.217973 140.490297 123.59733 140.678055 122.95061 140.808442 C 122.309105 140.933614 121.657169 141.001415 121.000017 141.001415 C 120.342865 141.001415 119.690929 140.933614 119.049424 140.808442 C 118.402704 140.678055 117.782061 140.490297 117.171849 140.239954 C 116.566852 139.98961 115.987933 139.681896 115.445522 139.316812 C 114.897896 138.951728 114.391993 138.534489 113.927815 138.07031 C 113.463636 137.606132 113.051613 137.10023 112.686529 136.557819 C 112.321444 136.010192 112.013731 135.431273 111.763387 134.826277 C 111.507828 134.22128 111.320071 133.595421 111.189683 132.948701 C 111.064512 132.307196 111.001926 131.65526 111.001926 130.998108 C 111.001926 130.340957 111.064512 129.694236 111.189683 129.047516 C 111.320071 128.40601 111.507828 127.780152 111.763387 127.175155 C 112.013731 126.564943 112.321444 125.991239 112.686529 125.443613 C 113.051613 124.895987 113.463636 124.3953 113.927815 123.931121 C 114.391993 123.466943 114.897896 123.049704 115.445522 122.68462 C 115.987933 122.319536 116.566852 122.011822 117.171849 121.761478 C 117.782061 121.511135 118.402704 121.318162 119.049424 121.19299 C 119.690929 121.062603 120.342865 121.000017 121.000017 121.000017 C 121.657169 121.000017 122.309105 121.062603 122.95061 121.19299 C 123.59733 121.318162 124.217973 121.511135 124.828185 121.761478 C 125.433182 122.011822 126.012101 122.319536 126.554512 122.68462 C 127.102138 123.049704 127.608041 123.466943 128.072219 123.931121 C 128.536398 124.3953 128.948421 124.895987 129.313505 125.443613 C 129.67859 125.991239 129.986303 126.564943 130.236647 127.175155 C 130.492206 127.780152 130.679963 128.40601 130.810351 129.047516 C 130.935522 129.694236 130.998108 130.340957 130.998108 130.998108 Z M 130.998108 130.998108 "
     transform="matrix(0.748971, 0, 0, 0.748971, 0.374486, 0.374486)"
     id="path131" />
  <g
     clip-path="url(#clip-13)"
     id="g135">
    <path
       fill-rule="nonzero"
       fill="#bebebe"
       fill-opacity="1"
       stroke-width="13.3574"
       stroke-linecap="butt"
       stroke-linejoin="miter"
       stroke="#bebebe"
       stroke-opacity="0.0392"
       stroke-miterlimit="4"
       d="m 50.080896,251.82415 c 0,76.9616 22.219006,150.44469 67.092684,221.31893 44.43801,70.43942 100.63902,126.53007 169.03871,167.83714 67.96402,41.30707 135.92803,62.17801 203.89205,63.04763 59.68635,0 107.60969,-16.95764 142.8987,-50.87292 6.09934,-6.95698 10.89167,-12.60952 14.81267,-16.95763 4.35667,-4.78293 6.97067,-8.26142 8.27767,-10.00066 l 0.87133,-3.04368 c 2.17834,0 10.89167,8.69622 27.01134,25.65386 4.79234,4.34811 9.58467,8.69623 14.81267,14.34877 5.66367,5.21774 10.89167,10.43547 16.11967,15.65321 5.228,5.65254 8.71334,9.13103 10.02034,11.30509 l 15.24834,14.78358 h 5.66366 c 9.58467,0 14.37701,-2.17405 14.37701,-6.95698 0,-2.60887 -10.89167,-48.26405 -32.23934,-136.96554 -23.96168,-92.61479 -36.16035,-139.1396 -36.16035,-140.00922 -1.307,-3.47849 -2.614,-5.21774 -4.79233,-6.08736 -2.17833,-0.43481 -7.842,-1.30443 -17.86234,-1.73924 h -16.11967 c -3.921,3.9133 -6.09933,6.95698 -6.09933,8.69622 0,0.86962 0.43566,3.04368 0.87133,6.95698 0.87133,4.34811 1.307,10.87028 2.17833,20.00132 0.87134,9.56585 0.87134,20.00132 0.87134,32.17603 0,47.39443 -10.45601,88.70149 -31.80368,123.92121 -21.34767,35.65452 -57.94368,53.48178 -108.91669,53.91659 -17.42667,0 -36.16034,-2.17406 -56.20101,-6.95698 -20.04068,-4.34811 -44.00235,-12.60953 -71.88502,-23.91462 C 354.17631,616.63079 326.29363,597.9339 298.84662,571.84523 271.83528,546.19137 247.43795,514.88496 226.09027,478.79562 204.7426,440.96705 187.7516,396.6163 175.11726,346.1782 162.48292,295.30528 155.94792,253.99821 155.94792,221.82218 c 0,-75.65716 25.26867,-130.443374 76.24169,-163.92384 31.80367,-22.610185 71.01368,-33.915277 117.63003,-33.915277 60.99335,0 115.01602,22.610184 162.06804,67.830554 47.48768,45.655183 78.85568,94.788853 94.10402,148.270633 2.614,8.69623 4.79234,13.47915 6.09934,14.78358 1.307,1.30444 6.535,2.17406 16.11967,2.17406 13.07,0 19.605,-3.04368 19.605,-9.13104 0,-3.04368 0,-6.08735 -0.87133,-8.69622 C 627.77504,167.47077 586.3867,106.16239 523.21501,54.854661 459.60766,3.546934 391.64365,-22.106929 318.8873,-22.106929 c -75.37036,0 -138.97771,25.219052 -190.82205,75.222345 C 75.785236,103.11871 50.080896,169.21002 50.080896,251.82415 Z m 0,0"
       transform="matrix(0.00896614,0,0,-0.00898378,85.382999,101.10218)"
       id="path133" />
  </g>
  <path
     fill-rule="nonzero"
     fill="rgb(74.508667%, 74.508667%, 74.508667%)"
     fill-opacity="1"
     d="M 92.484375 99.726563 C 92.371094 99.726563 92.28125 99.6875 92.210938 99.609375 C 92.144531 99.535156 92.109375 99.441406 92.109375 99.332031 C 92.109375 99.03125 92.222656 98.769531 92.445313 98.550781 C 92.671875 98.328125 92.949219 98.21875 93.285156 98.21875 C 93.667969 98.21875 93.988281 98.339844 94.246094 98.574219 C 94.503906 98.8125 94.636719 99.121094 94.640625 99.496094 C 94.640625 99.679688 94.597656 99.851563 94.511719 100.015625 C 94.429688 100.183594 94.328125 100.328125 94.207031 100.449219 C 94.089844 100.570313 93.921875 100.726563 93.703125 100.917969 C 93.550781 101.050781 93.339844 101.246094 93.066406 101.503906 L 92.695313 101.859375 L 93.175781 101.867188 C 93.839844 101.867188 94.191406 101.855469 94.234375 101.832031 C 94.265625 101.824219 94.316406 101.636719 94.386719 101.269531 L 94.386719 101.25 L 94.640625 101.25 L 94.640625 101.269531 C 94.636719 101.28125 94.609375 101.472656 94.558594 101.847656 C 94.507813 102.21875 94.476563 102.414063 94.460938 102.429688 L 94.460938 102.449219 L 92.109375 102.449219 L 92.109375 102.253906 C 92.109375 102.222656 92.125 102.191406 92.148438 102.15625 C 92.175781 102.125 92.238281 102.050781 92.339844 101.933594 C 92.460938 101.800781 92.566406 101.679688 92.65625 101.578125 C 92.695313 101.539063 92.765625 101.457031 92.871094 101.34375 C 92.976563 101.230469 93.050781 101.152344 93.085938 101.109375 C 93.125 101.066406 93.1875 100.996094 93.269531 100.898438 C 93.355469 100.800781 93.414063 100.730469 93.449219 100.683594 C 93.480469 100.636719 93.53125 100.574219 93.59375 100.492188 C 93.65625 100.414063 93.703125 100.34375 93.726563 100.289063 C 93.753906 100.234375 93.785156 100.171875 93.824219 100.105469 C 93.859375 100.039063 93.886719 99.96875 93.90625 99.902344 C 93.921875 99.835938 93.9375 99.773438 93.949219 99.710938 C 93.960938 99.652344 93.96875 99.582031 93.96875 99.503906 C 93.96875 99.234375 93.894531 99.003906 93.753906 98.808594 C 93.609375 98.617188 93.402344 98.519531 93.136719 98.519531 C 93 98.519531 92.875 98.554688 92.769531 98.625 C 92.664063 98.699219 92.589844 98.769531 92.546875 98.835938 C 92.507813 98.902344 92.484375 98.945313 92.484375 98.957031 C 92.484375 98.960938 92.496094 98.960938 92.515625 98.960938 C 92.59375 98.960938 92.671875 98.992188 92.75 99.050781 C 92.832031 99.109375 92.871094 99.207031 92.871094 99.34375 C 92.871094 99.449219 92.835938 99.539063 92.769531 99.609375 C 92.703125 99.683594 92.605469 99.722656 92.484375 99.726563 Z M 92.484375 99.726563 "
     id="path137" />
  <g
     clip-path="url(#clip-14)"
     id="g141">
    <path
       fill="none"
       stroke-width="18.8931"
       stroke-linecap="butt"
       stroke-linejoin="miter"
       stroke="#bebebe"
       stroke-opacity="0.0275"
       stroke-miterlimit="4"
       d="m 108.94084,428.74419 c -17.870348,0 -32.043381,6.15009 -43.13532,18.45027 -10.475721,11.68517 -16.02169,26.44538 -16.02169,43.66563 0,47.35568 17.870346,88.56127 52.99482,123.00177 35.74069,35.0555 79.49223,52.27575 132.48705,52.27575 60.38945,0 110.91939,-19.06528 151.58984,-55.96581 40.67044,-37.51554 61.62188,-86.10123 62.2381,-145.14208 0,-28.90542 -6.77841,-55.96581 -20.33522,-81.79618 -12.9406,-26.44538 -28.96229,-49.20071 -48.06507,-68.26598 C 362.20679,295.90228 335.70937,271.30193 301.20112,241.1665 277.16858,220.2562 243.89277,189.50576 200.75745,148.91517 L 142.21666,92.949367 218.01157,91.71935 c 104.75721,0 160.2169,1.845026 166.99531,5.535079 4.92975,1.230018 12.9406,30.750441 24.03254,88.561271 v 3.07505 h 40.05422 V 185.8157 C 448.47742,183.97068 444.16389,153.83524 436.15305,94.794394 428.1422,36.368554 423.21245,5.618112 420.74757,3.158076 V 0.0830321 H 49.78383 V 30.833474 c 0,4.920071 2.464875,9.840142 6.162188,15.375221 4.313532,4.920071 14.173033,16.605239 30.194723,35.055504 19.102789,20.910301 35.740689,39.975571 49.913729,55.965801 6.16219,6.15009 17.25413,19.06528 33.89203,36.90053 16.63791,17.83526 28.34607,30.13544 33.89204,36.90053 6.16219,6.7651 16.02169,17.83526 28.96229,33.21048 13.55681,15.37522 22.80009,26.44538 28.34606,33.82549 4.92975,7.3801 12.9406,17.22025 22.8001,30.13543 9.8595,12.30018 17.25413,23.37034 20.95144,31.98046 4.31353,8.61013 9.24328,18.45027 15.40547,28.90542 5.54597,10.45515 9.8595,21.52531 12.9406,31.98046 2.46487,10.45515 4.92975,20.29529 6.77841,30.13543 1.84865,9.22513 3.08109,20.29529 3.08109,32.59547 0,42.43561 -11.70816,78.72113 -33.89204,109.47157 -22.80009,30.13544 -55.45969,45.51066 -97.36257,45.51066 -21.56766,0 -41.28667,-5.53508 -57.92458,-16.60524 -16.6379,-11.68517 -28.34606,-22.75533 -35.12447,-33.21048 -6.16219,-10.45515 -9.8595,-17.22025 -9.8595,-19.06527 0,-0.61501 1.84866,-0.61501 4.92975,-0.61501 12.32438,0 24.64875,-4.92007 36.97313,-14.14521 12.9406,-9.22513 19.10278,-24.60035 19.10278,-46.12566 0,-16.60524 -5.54597,-30.75044 -16.02169,-41.8206 -10.47572,-11.68517 -25.88119,-17.83526 -44.98397,-18.45027 z m 0,0"
       transform="matrix(0.00633906,0,0,-0.00635153,91.793792,102.44975)"
       id="path139" />
  </g>
  <path
     fill-rule="nonzero"
     fill="rgb(100%, 100%, 100%)"
     fill-opacity="1"
     stroke-width="1"
     stroke-linecap="butt"
     stroke-linejoin="miter"
     stroke="rgb(74.508667%, 74.508667%, 74.508667%)"
     stroke-opacity="1"
     stroke-miterlimit="4"
     d="M 130.998108 11.000152 C 130.998108 11.657303 130.935522 12.309239 130.810351 12.950744 C 130.679963 13.597465 130.492206 14.218108 130.236647 14.82832 C 129.986303 15.433317 129.67859 16.012236 129.313505 16.554647 C 128.948421 17.102273 128.536398 17.608176 128.072219 18.072354 C 127.608041 18.536533 127.102138 18.948556 126.554512 19.31364 C 126.012101 19.678724 125.433182 19.986438 124.828185 20.236782 C 124.217973 20.492341 123.59733 20.680098 122.95061 20.80527 C 122.309105 20.935657 121.657169 20.998243 121.000017 20.998243 C 120.342865 20.998243 119.690929 20.935657 119.049424 20.80527 C 118.402704 20.680098 117.782061 20.492341 117.171849 20.236782 C 116.566852 19.986438 115.987933 19.678724 115.445522 19.31364 C 114.897896 18.948556 114.391993 18.536533 113.927815 18.072354 C 113.463636 17.608176 113.051613 17.102273 112.686529 16.554647 C 112.321444 16.012236 112.013731 15.433317 111.763387 14.82832 C 111.507828 14.218108 111.320071 13.597465 111.189683 12.950744 C 111.064512 12.309239 111.001926 11.657303 111.001926 11.000152 C 111.001926 10.343 111.064512 9.691064 111.189683 9.049559 C 111.320071 8.402839 111.507828 7.782196 111.763387 7.171983 C 112.013731 6.566987 112.321444 5.988068 112.686529 5.445657 C 113.051613 4.89803 113.463636 4.392128 113.927815 3.92795 C 114.391993 3.463771 114.897896 3.051748 115.445522 2.686663 C 115.987933 2.321579 116.566852 2.013865 117.171849 1.763522 C 117.782061 1.507963 118.402704 1.320205 119.049424 1.189818 C 119.690929 1.064647 120.342865 1.002061 121.000017 1.002061 C 121.657169 1.002061 122.309105 1.064647 122.95061 1.189818 C 123.59733 1.320205 124.217973 1.507963 124.828185 1.763522 C 125.433182 2.013865 126.012101 2.321579 126.554512 2.686663 C 127.102138 3.051748 127.608041 3.463771 128.072219 3.92795 C 128.536398 4.392128 128.948421 4.89803 129.313505 5.445657 C 129.67859 5.988068 129.986303 6.566987 130.236647 7.171983 C 130.492206 7.782196 130.679963 8.402839 130.810351 9.049559 C 130.935522 9.691064 130.998108 10.343 130.998108 11.000152 Z M 130.998108 11.000152 "
     transform="matrix(0.748971, 0, 0, 0.748971, 0.374486, 0.374486)"
     id="path143" />
  <g
     clip-path="url(#clip-15)"
     id="g147">
    <path
       fill-rule="nonzero"
       fill="#bebebe"
       fill-opacity="1"
       d="m 87.359375,11.210938 c -0.113281,0 -0.167969,-0.02734 -0.167969,-0.08984 0,-0.01172 0.0078,-0.05469 0.02734,-0.125 0.02734,-0.09375 0.05469,-0.148438 0.08203,-0.160156 0.02734,-0.01172 0.101563,-0.02344 0.230469,-0.02734 0.179688,0 0.378906,-0.0078 0.597656,-0.02734 0.09375,-0.01953 0.15625,-0.05469 0.191407,-0.109375 0.01172,-0.02734 0.25,-0.867187 0.707031,-2.519531 0.460942,-1.652356 0.695317,-2.488293 0.70313,-2.511731 0,-0.042969 -0.01563,-0.066406 -0.04297,-0.066406 C 89.636719,5.558594 89.45703,5.542969 89.160155,5.53125 h -0.3125 c -0.03906,-0.035156 -0.05859,-0.058594 -0.05859,-0.070312 0,-0.011719 0.0078,-0.0625 0.01953,-0.152344 0.02734,-0.101563 0.0625,-0.167969 0.101562,-0.191406 h 5.386719 c 0.04687,0.023437 0.07031,0.058593 0.07031,0.101562 0,0.027344 -0.04687,0.363281 -0.132813,1.003906 -0.08594,0.640625 -0.132812,0.96875 -0.140625,0.988282 -0.01172,0.039062 -0.07813,0.0625 -0.199219,0.0625 h -0.117187 c -0.04687,-0.03125 -0.07031,-0.070313 -0.07031,-0.117188 0,-0.00781 0.0078,-0.078125 0.02734,-0.214844 0.01953,-0.140625 0.03125,-0.296875 0.03125,-0.476562 0,-0.179688 -0.02344,-0.328125 -0.07031,-0.441406 C 93.648438,5.910156 93.585938,5.816406 93.507813,5.746094 93.425781,5.675781 93.304688,5.625 93.136719,5.601563 92.96875,5.578125 92.800781,5.558594 92.625,5.539063 92.453125,5.523438 92.214844,5.519531 91.90625,5.53125 h -0.230469 c -0.542968,0.00781 -0.835937,0.015625 -0.867187,0.027344 -0.03516,0.011719 -0.05859,0.035156 -0.07031,0.070312 -0.0078,0.00781 -0.121093,0.398438 -0.339843,1.175782 l -0.320313,1.160156 h 0.550781 c 0.01953,0 0.09375,0 0.230469,0 0.132813,0 0.226563,-0.00391 0.277344,-0.011719 0.05469,-0.00391 0.128906,-0.015625 0.222656,-0.027344 0.08984,-0.011718 0.171875,-0.03125 0.238281,-0.0625 0.06641,-0.027343 0.121094,-0.066406 0.167969,-0.105468 0.08984,-0.074219 0.160156,-0.171875 0.222656,-0.296875 0.05859,-0.125 0.101563,-0.238282 0.128907,-0.339844 0.02734,-0.101563 0.04297,-0.15625 0.05078,-0.164063 0.01953,-0.027343 0.08203,-0.042968 0.1875,-0.042968 h 0.121094 c 0.04687,0.027343 0.07031,0.058593 0.07031,0.089843 0,0.015625 -0.101562,0.410157 -0.308594,1.175782 -0.207031,0.765625 -0.320312,1.160156 -0.339843,1.183593 -0.01563,0.042969 -0.08203,0.0625 -0.203125,0.0625 h -0.117188 c -0.04687,-0.035156 -0.07031,-0.070312 -0.07031,-0.109375 0,-0.015625 0.01563,-0.082031 0.05078,-0.195312 0.03125,-0.113281 0.04687,-0.234375 0.04687,-0.359375 0,-0.171875 -0.06641,-0.28125 -0.199219,-0.324219 C 91.273438,8.398438 90.976563,8.375 90.519531,8.375 H 89.96875 l -0.320312,1.140625 c -0.214844,0.742188 -0.320313,1.128906 -0.320313,1.167969 0,0.08203 0.296875,0.125 0.890625,0.125 h 0.25 c 0.03906,0.03516 0.05859,0.05469 0.05859,0.0625 0,0.0039 -0.0078,0.06641 -0.01953,0.179687 -0.02734,0.07813 -0.05859,0.132813 -0.101563,0.171875 h -0.167969 c -0.273437,-0.01563 -0.777343,-0.01953 -1.507812,-0.01953 -0.433594,0 -0.765625,0 -0.992188,0 -0.226562,0 -0.351562,0.0039 -0.378906,0.0078 z m 0,0"
       id="path145" />
  </g>
  <g
     clip-path="url(#clip-16)"
     id="g151">
    <path
       fill="none"
       stroke-width="12.0085"
       stroke-linecap="butt"
       stroke-linejoin="miter"
       stroke="#bebebe"
       stroke-opacity="0.0392"
       stroke-miterlimit="4"
       d="m 47.906385,1.100286 c -11.336124,0 -16.808735,3.046926 -16.808735,10.011329 0,1.305826 0.781801,6.093853 2.736306,13.928806 2.736305,10.446605 5.472611,16.540457 8.208917,17.846283 2.736306,1.305826 10.163421,2.611651 23.063148,3.046926 17.981438,0 37.917379,0.870551 59.807829,3.046927 9.38162,2.176376 15.63603,6.093852 19.15414,12.187705 1.1727,3.046926 25.01765,96.631088 70.75305,280.752498 46.12629,184.1214 69.58034,277.2703 70.36214,279.88195 0,4.78802 -1.5636,7.39968 -4.2999,7.39968 -5.08172,1.7411 -23.06315,3.4822 -52.77162,4.78802 H 196.8396 c -3.90901,3.91748 -5.86351,6.52913 -5.86351,7.83496 0,1.30582 0.7818,6.9644 1.9545,16.97573 2.73631,11.31715 6.25441,18.71683 10.16342,21.32848 h 539.05224 c 4.69081,-2.61165 7.03621,-6.52913 7.03621,-11.31715 0,-3.04693 -4.69081,-40.4806 -13.29063,-111.86573 -8.59981,-71.38513 -13.29062,-107.94824 -14.07243,-110.12462 -1.1727,-4.35275 -7.81801,-6.9644 -19.93594,-6.9644 h -11.72702 c -4.69081,3.4822 -7.03622,7.83495 -7.03622,13.05825 0,0.87055 0.7818,8.70551 2.73631,23.94014 1.9545,15.66991 3.12721,33.08091 3.12721,53.10357 0,20.02266 -2.34541,36.56312 -7.03622,49.1861 -4.69081,12.62298 -10.94522,23.06958 -18.76324,30.90454 -8.20892,7.83495 -20.32684,13.49353 -37.13558,16.10518 -16.80873,2.61165 -33.61747,4.78803 -51.20801,6.9644 -17.19963,1.7411 -41.04458,2.17638 -71.92575,0.87055 h -23.06315 c -54.33521,-0.87055 -83.65277,-1.7411 -86.77998,-3.04692 -3.51811,-1.30583 -5.86351,-3.91748 -7.03621,-7.83496 -0.7818,-0.87055 -12.11793,-44.39807 -34.00837,-131.01783 L 319.97336,362.81397 h 55.11701 c 1.95451,0 9.38162,0 23.06315,0 13.29063,0 22.67225,0.43527 27.75396,1.30582 5.47261,0.43528 12.89973,1.74111 22.28135,3.04693 8.99072,1.30583 17.19963,3.4822 23.84495,6.9644 6.64531,3.04693 12.11792,7.39968 16.80873,11.75243 8.99072,8.27023 16.02694,19.15211 22.28135,33.08092 5.86351,13.9288 10.16342,26.55178 12.89973,37.86894 2.7363,11.31715 4.29991,17.41101 5.08171,18.28156 1.9545,3.04692 8.20892,4.78802 18.76324,4.78802 h 12.11792 c 4.69081,-3.04692 7.03622,-6.52912 7.03622,-10.01133 0,-1.7411 -10.16342,-45.70389 -30.88117,-131.01783 -20.71774,-85.31393 -32.05386,-129.27673 -34.00837,-131.88838 -1.5636,-4.78803 -8.20892,-6.9644 -20.32684,-6.9644 h -11.72703 c -4.69081,3.91747 -7.03621,7.83495 -7.03621,12.1877 0,1.7411 1.5636,9.14078 5.08171,21.76376 3.12721,12.62298 4.69081,26.11651 4.69081,40.04532 0,19.15211 -6.64531,31.33981 -19.93594,36.12784 -13.29063,4.35275 -42.99909,6.9644 -88.73449,6.9644 H 309.02814 L 276.97427,190.00972 C 255.47472,107.30743 244.9204,64.215188 244.9204,59.862436 c 0,-9.140779 29.70846,-13.928806 89.12539,-13.928806 h 25.01765 c 3.90901,-3.917476 5.86351,-6.093852 5.86351,-6.964403 0,-0.435275 -0.7818,-7.399678 -1.9545,-20.022659 -2.73631,-8.705503 -5.86351,-14.799356 -10.16342,-19.152108 h -16.80874 c -27.36306,1.741101 -77.78926,2.176376 -150.88772,2.176376 -43.38999,0 -76.61656,0 -99.288805,0 -22.672248,0 -35.181074,-0.435275 -37.91738,-0.87055 z m 0,0"
       transform="matrix(0.00999294,0,0,-0.00897421,86.880649,11.220812)"
       id="path149" />
  </g>
</svg>
